<?xml version="1.0" standalone="no"?>
<!DOCTYPE svg PUBLIC "-//W3C//DTD SVG 1.1//EN" "http://www.w3.org/Graphics/SVG/1.1/DTD/svg11.dtd" >
<svg>
<metadata>
Created by FontForge 20090914 at Fri Feb 10 23:56:42 2023
 By www-data
Copyright (c) ParaType, Inc., 2000. All rights reserved.
</metadata>
<defs>
<font id="ReformaGroteskDemiC" horiz-adv-x="540" >
  <font-face 
    font-family="ReformaGroteskDemiC"
    font-weight="600"
    font-stretch="normal"
    units-per-em="1000"
    panose-1="0 0 7 0 0 0 0 0 0 0"
    ascent="835"
    descent="-165"
    x-height="512"
    cap-height="700"
    bbox="-57 -165 682.001 887"
    underline-thickness="50"
    underline-position="-150"
    unicode-range="U+0020-U+F6D4"
  />
<missing-glyph horiz-adv-x="233" 
 />
    <glyph glyph-name=".notdef" horiz-adv-x="233" 
 />
    <glyph glyph-name="space" unicode=" " horiz-adv-x="233" 
 />
    <glyph glyph-name="space" unicode="&#xa0;" horiz-adv-x="233" 
 />
    <glyph glyph-name="exclam" unicode="!" horiz-adv-x="168" 
d="M138 0h-108v120h108v-120zM110 158h-52l-23 197v345h98v-345z" />
    <glyph glyph-name="quotedbl" unicode="&#x22;" horiz-adv-x="296" 
d="M94 462h-40l-24 126v112h88v-112zM242 462h-40l-24 126v112h88v-112z" />
    <glyph glyph-name="numbersign" unicode="#" horiz-adv-x="572" 
d="M324 0h-91l61 222h-97l-62 -222h-91l61 223h-100l26 89h98l34 120h-99l26 92h99l50 176h91l-50 -176h98l50 176h93l-52 -176h98l-26 -92h-98l-34 -120h100l-23 -89h-101zM318 312l34 120h-98l-34 -120h98z" />
    <glyph glyph-name="dollar" unicode="$" horiz-adv-x="390" 
d="M25 233l113.998 -0.000976562v-63c0 -27.333 2.33301 -45.666 7 -54.999c8 -18 24.667 -27 50 -27c20.667 0 35.334 4.66699 44.001 14c7.33301 8.66699 11 24.334 11 47.001v46c0 30.667 -12 57 -36 79l-117 108c-22 20.667 -37.667 39 -47 55c-15.333 26 -23 56 -23 90
v56c0 35.333 12.667 64.333 38 87c22.667 20 51.334 32.333 86.001 37v67h90v-67c32 -6 58.667 -19 80 -39c26.667 -26 40 -61.667 40 -107v-71h-114v58c0 23.333 -4.33301 39.666 -13 48.999c-9.33301 10 -22.333 15 -39 15c-18 0 -31.667 -4.33301 -41 -13
c-8.66699 -8 -13 -21.333 -13 -40v-30c0 -21.333 9.33301 -40.333 28 -57l117 -107c16.667 -15.333 29.5 -28.166 38.5 -38.499s17.833 -25.333 26.5 -45s13 -41.167 13 -64.5v-80c0 -45.333 -13.333 -81 -40 -107c-20.667 -20.667 -46.334 -33 -77.001 -37v-69h-90v70
c-27.333 4 -51.666 13.333 -72.999 28c-40 27.333 -60 68.666 -60 123.999v87z" />
    <glyph glyph-name="percent" unicode="%" horiz-adv-x="659" 
d="M264 562v-66c0 -46 -8.33301 -79 -25 -99c-22.667 -26 -55 -39 -97 -39s-74.333 13 -97 39c-16.667 20 -25 53 -25 99v66c0 46 8.33301 79 25 99c22.667 26 55 39 97 39s74.333 -13 97 -39c16.667 -20 25 -53 25 -99zM114 587v-116c0 -13.333 1.66699 -22.666 5 -27.999
c4.66699 -8 12.334 -12 23.001 -12s18.334 4 23.001 12c3.33301 5.33301 5 14.666 5 27.999v116c0 13.333 -1.66699 22.666 -5 27.999c-4.66699 8 -12.334 12 -23.001 12s-18.334 -4 -23.001 -12c-3.33301 -5.33301 -5 -14.666 -5 -27.999zM230 0h-83l280 700h84zM639 205
v-66c0 -46 -8.33301 -79 -25 -99c-22.667 -26 -55 -39 -97 -39s-74.333 13 -97 39c-16.667 20 -25 53 -25 99v66c0 46 8.33301 79 25 99c22.667 26 55 39 97 39s74.333 -13 97 -39c16.667 -20 25 -53 25 -99zM489 230v-116c0 -13.333 1.66699 -22.666 5 -27.999
c4.66699 -8 12.334 -12 23.001 -12s18.334 4 23.001 12c3.33301 5.33301 5 14.666 5 27.999v116c0 13.333 -1.66699 22.666 -5 27.999c-4.66699 8 -12.334 12 -23.001 12s-18.334 -4 -23.001 -12c-3.33301 -5.33301 -5 -14.666 -5 -27.999z" />
    <glyph glyph-name="ampersand" unicode="&#x26;" horiz-adv-x="480" 
d="M475 0l-118 0.00195312l-18 28c-16 -18.667 -39.333 -28 -70 -28h-127c-35.333 0 -65 12.667 -89 38c-18.667 19.333 -28 48 -28 86v105c0 22 3 40.667 9 56c4.66699 11.333 15 25.666 31 42.999l48 51l-51 88c-18 31.333 -27 63.666 -27 96.999v20c0 40 14 71.333 42 94
c28 21.333 69 32 123 32c53.333 0 93.333 -11.667 120 -35c26 -22.667 39 -53.667 39 -93v-41c0 -39.333 -12.667 -75 -38 -107l-64 -78l80 -126v121h114v-120c0 -46.667 -13 -89 -39 -127zM280 119.002l-102.001 160l-20 -19l-6 -6c-2 -2 -3.66699 -4.16699 -5 -6.5
l-3.5 -6c-1 -1.66699 -1.66699 -3.83398 -2 -6.50098s-0.833008 -4.5 -1.5 -5.5s-1 -3.16699 -1 -6.5v-6v-7v-7v-54c0 -21.333 3 -35.166 9 -41.499s18.667 -9.5 38 -9.5h41c22.667 0 40.334 7 53.001 21zM196.999 452.002l26.001 30.001c14.667 17.333 22 37.666 22 60.999
v28c0 15.333 -4.33301 26 -13 32c-7.33301 6 -18 9 -32 9c-16.667 0 -29.334 -3.33301 -38.001 -10c-8.66699 -6 -13 -15.667 -13 -29v-23c0 -10 4.66699 -23.667 14 -41z" />
    <glyph glyph-name="quotesingle" unicode="'" horiz-adv-x="148" 
d="M94 462h-40l-24 126v112h88v-112z" />
    <glyph glyph-name="parenleft" unicode="(" horiz-adv-x="219" 
d="M209 -85v-75.0029c-54.667 20.667 -99.334 54 -134.001 100c-14 18 -24.333 36.333 -31 55s-10.334 33.5 -11.001 44.5s-1 27.833 -1 50.5v370c0 22.667 0.333008 39.5 1 50.5s4.33398 25.833 11.001 44.5s17 37 31 55c34.667 46 79.334 79.333 134.001 100v-75
c-28.667 -15.333 -49.667 -38.666 -63 -69.999c-9.33301 -21.333 -14 -53.666 -14 -96.999v-386c0 -43.333 4.66699 -75.666 14 -96.999c13.333 -30.667 34.333 -54 63 -70z" />
    <glyph glyph-name="parenright" unicode=")" horiz-adv-x="219" 
d="M10 -160v75.002c28.667 16 49.667 39.333 63 70c9.33301 21.333 14 53.666 14 96.999v386c0 43.333 -4.66699 75.666 -14 96.999c-13.333 30.667 -34.333 54 -63 70v75c54.667 -20.667 99.334 -54 134.001 -100c14 -18 24.333 -36.333 31 -55s10.334 -33.5 11.001 -44.5
s1 -27.833 1 -50.5v-370c0 -22.667 -0.333008 -39.5 -1 -50.5s-4.33398 -25.833 -11.001 -44.5s-17 -37 -31 -55c-34.667 -46 -79.334 -79.333 -134.001 -100z" />
    <glyph glyph-name="asterisk" unicode="*" horiz-adv-x="318" 
d="M194 700l-16 -98l88 48l22 -72l-98 -12l72 -69l-61 -43l-42 89l-43 -89l-60 44l72 68l-98 13l23 71l87 -48l-18 98h72z" />
    <glyph glyph-name="plus" unicode="+" 
d="M232 123v192h-192v76h192v192h76v-192h192v-76h-192v-192h-76z" />
    <glyph glyph-name="comma" unicode="," horiz-adv-x="171" 
d="M80 -132h-50l47 132h-44v120h108v-129z" />
    <glyph glyph-name="hyphen" unicode="-" horiz-adv-x="234" 
d="M10 215v83h214v-83h-214z" />
    <glyph glyph-name="hyphen" unicode="&#xad;" horiz-adv-x="234" 
d="M10 215v83h214v-83h-214z" />
    <glyph glyph-name="period" unicode="." horiz-adv-x="168" 
d="M30 0v120h108v-120h-108z" />
    <glyph glyph-name="slash" unicode="/" horiz-adv-x="440" 
d="M89 -160h-84l346 860h84z" />
    <glyph glyph-name="zero" unicode="0" horiz-adv-x="382" 
d="M350 527v-369c0 -60 -18.667 -106 -56 -138c-24 -20 -58.333 -30 -103 -30s-79 10 -103 30c-37.333 32 -56 78 -56 138v369c0 62.667 15 109 45 139c28 29.333 66 44 114 44s86 -14.667 114 -44c30 -30 45 -76.333 45 -139zM236 150v397c0 23.333 -2 38.333 -6 45
c-7.33301 13.333 -20.333 20 -39 20s-31.667 -6.66699 -39 -20c-4 -6.66699 -6 -21.667 -6 -45v-397c0 -22.667 3 -38 9 -46c6.66699 -10.667 18.667 -16 36 -16s29.333 5.33301 36 16c6 8 9 23.333 9 46z" />
    <glyph glyph-name="one" unicode="1" horiz-adv-x="243" 
d="M208 0l-114 0.000976562v541c-34.667 -16 -62.667 -25 -84 -27v86c24.667 6 44 15 58 27c21.333 17.333 36 41.666 44 72.999h96v-700z" />
    <glyph glyph-name="two" unicode="2" horiz-adv-x="365" 
d="M340 0l-320.002 0.000976562c-7.33301 66 7 130.333 43 193c20 34 43.333 66.667 70 98c24.667 28 42.667 49.333 54 64c16.667 22 27.167 40.167 31.5 54.5s6.5 32.833 6.5 55.5v63c0 23.333 -2 40.333 -6 51c-6 15.333 -18.333 23 -37 23c-18 0 -30 -7.66699 -36 -23
c-4 -8 -6 -27.333 -6 -58v-92h-111v83c0 47.333 5.33301 83.333 16 108c11.333 26.667 29.333 46.667 54 60s52.334 20 83.001 20c60.667 0 104 -22 130 -66c18 -30.667 27 -70.334 27 -119.001v-35c0 -48 -3.66699 -83.667 -11 -107c-8 -26 -28.667 -59 -62 -99
c-13.333 -16 -28.833 -33.667 -46.5 -53s-29.167 -32.333 -34.5 -39c-23.333 -27.333 -38.666 -55.333 -45.999 -84h201v-98z" />
    <glyph glyph-name="three" unicode="3" horiz-adv-x="374" 
d="M20 230l114 -0.000976562v-58c0 -31.333 2.33301 -51.666 7 -60.999c7.33301 -15.333 21.333 -23 42 -23c21.333 0 35.333 7.66699 42 23c3.33301 6.66699 5 24.334 5 53.001v65c0 39.333 -3.33301 64 -10 74c-12 17.333 -36 26 -72 26h-35v98h62
c6.66699 0 12 0.333008 16 1s9.16699 2.5 15.5 5.5s11 8.66699 14 17s4.5 19.166 4.5 32.499v72c0 19.333 -2.66699 33 -8 41c-8 10.667 -19.667 16 -35 16c-16 0 -27.667 -5 -35 -15c-5.33301 -8 -8 -22.333 -8 -43v-49h-114v52c0 38 8.33301 69 25 93
c26.667 40 71 60 133 60c61.333 0 105.333 -18.333 132 -55c16 -22.667 24 -52.667 24 -90v-55c0 -28.667 -1.66699 -50.5 -5 -65.5s-11 -28.833 -23 -41.5c-14.667 -14.667 -31.667 -24 -51 -28c35.333 -8.66699 60 -31.667 74 -69c6.66699 -19.333 10 -46 10 -80v-67
c0 -44 -7 -78.667 -21 -104c-25.333 -43.333 -72.333 -65 -141 -65c-64.667 0 -110 20.667 -136 62c-17.333 26.667 -26 66 -26 118v60z" />
    <glyph glyph-name="four" unicode="4" horiz-adv-x="382" 
d="M315 0h-114v128h-191v93l191 479h114v-478h52v-94h-52v-128zM201 222v238l-86 -238h86z" />
    <glyph glyph-name="five" unicode="5" horiz-adv-x="367" 
d="M25 203h112.997v-53c0 -21.333 3 -36.333 9 -45c7.33301 -11.333 19.333 -17 36 -17s28.334 5 35.001 15c6.66699 8.66699 10 24 10 46v155c0 22.667 -3.33301 38.667 -10 48c-7.33301 10 -18.666 15 -33.999 15c-16.667 0 -28.667 -5.33301 -36 -16
c-5.33301 -8 -8 -21.333 -8 -40v-17h-102v406h289v-94h-187v-191c6.66699 10.667 17 20.667 31 30c16.667 10.667 36.334 16 59.001 16c33.333 0 59.666 -11.333 78.999 -34c22 -26 33 -72.667 33 -140v-121c0 -45.333 -6 -80 -18 -104
c-23.333 -48 -68.666 -72 -135.999 -72s-114 25 -140 75c-15.333 29.333 -23 65 -23 107v31z" />
    <glyph glyph-name="six" unicode="6" horiz-adv-x="380" 
d="M350 266l-0.00195312 -104.002c0 -42.667 -6 -76 -18 -100c-24 -48 -69.333 -72 -136 -72c-67.333 0 -114 25 -140 75c-8 14.667 -13.833 32 -17.5 52s-5.66699 35.833 -6 47.5s-0.5 29.834 -0.5 54.501v290c0 67.333 12 116.333 36 147c28 36 68.333 54 121 54
s93.334 -17 122.001 -51c20.667 -24.667 31 -60 31 -106v-58h-110v51c0 19.333 -3 35 -9 47c-7.33301 12.667 -19 19 -35 19c-13.333 0 -23.666 -5.66699 -30.999 -17c-7.33301 -12 -11 -29.333 -11 -52v-156c8 13.333 19 24.333 33 33c17.333 10.667 37.333 16 60 16
c32.667 0 58.667 -11.333 78 -34c22 -25.333 33 -70.666 33 -135.999zM145.998 274.998v-125c0 -19.333 3 -34 9 -44c8.66699 -12 20.667 -18 36 -18c17.333 0 29.333 5.33301 36 16c6 8.66699 9 23.667 9 45v130c0 22 -3 37.667 -9 47c-8.66699 10.667 -20.667 16 -36 16
c-16 0 -27.667 -5.33301 -35 -16c-6.66699 -9.33301 -10 -26.333 -10 -51z" />
    <glyph glyph-name="seven" unicode="7" horiz-adv-x="339" 
d="M179 0l-113.999 0.000976562c0 76.667 10 157.667 30 243c15.333 63.333 42.666 147 81.999 251c13.333 35.333 29.333 72.666 48 111.999h-111c0 -10.667 0.166992 -26.5 0.5 -47.5s0.833008 -36.833 1.5 -47.5l-100 1l-1 188h314l-1 -92
c-16.667 -34.667 -32.667 -71 -48 -109c-28 -71.333 -51.833 -154 -71.5 -248s-29.5 -177.667 -29.5 -251z" />
    <glyph glyph-name="eight" unicode="8" horiz-adv-x="368" 
d="M343 227l-0.000976562 -82c0 -44 -11.667 -79.333 -35 -106c-28.667 -32.667 -69.334 -49 -122.001 -49c-54.667 0 -96.667 16.333 -126 49c-23.333 26.667 -35 62 -35 106v82c0 42 7 75.667 21 101c12.667 24 33.334 41.333 62.001 52c-13.333 4.66699 -26 12 -38 22
c-25.333 22.667 -38 56.667 -38 102v51c0 54.667 15.333 95 46 121c26.667 22.667 62 34 106 34s79.333 -11.333 106 -34c30.667 -26 46 -66.333 46 -121v-51c0 -45.333 -12.667 -79.333 -38 -102c-12 -10 -24.667 -17.333 -38 -22c28.667 -10.667 49.334 -28 62.001 -52
c14 -25.333 21 -59 21 -101zM228.999 166l0.00195312 78c0 27.333 -2.33301 47.666 -7 60.999c-6.66699 18 -19.334 27 -38.001 27s-31.334 -9 -38.001 -27c-4.66699 -13.333 -7 -33.666 -7 -60.999v-78c0 -24.667 3 -43.667 9 -57c6.66699 -14 18.667 -21 36 -21
s29.333 7 36 21c6 13.333 9 32.333 9 57zM142.001 556l-0.00195312 -67c0 -16 2.33301 -28.667 7 -38c6.66699 -14 18.334 -21 35.001 -21s28.334 7 35.001 21c4.66699 9.33301 7 22 7 38v67c0 18.667 -3 32.334 -9 41.001c-6 10 -17 15 -33 15s-27 -5 -33 -15
c-6 -8.66699 -9 -22.334 -9 -41.001z" />
    <glyph glyph-name="nine" unicode="9" horiz-adv-x="375" 
d="M343 525l0.00292969 -348.001c0 -52 -6.66699 -90.667 -20 -116c-24.667 -47.333 -68.667 -71 -132 -71c-64.667 0 -110.334 21 -137.001 63c-15.333 24 -23 57 -23 99v47h110v-44c0 -23.333 2 -38.666 6 -45.999c7.33301 -14 20 -21 38 -21
c17.333 0 29.666 6.33301 36.999 19c4.66699 8.66699 7 24 7 46v163c-12 -37.333 -43.667 -56 -95 -56c-28.667 0 -52.667 9.33301 -72 28c-12 11.333 -20.833 25 -26.5 41s-8.83398 29.167 -9.50098 39.5s-1 25.5 -1 45.5v133c0 55.333 14 96.333 42 123
c27.333 26.667 66 40 116 40c49.333 0 87.333 -12.333 114 -37c20 -18 32.667 -38 38 -60s8 -51.333 8 -88zM229.003 419.999v138.001c0 16 -2.66699 28.333 -8 37c-8 11.333 -20.333 17 -37 17c-15.333 0 -27 -5.33301 -35 -16c-6.66699 -8.66699 -10 -21.334 -10 -38.001
v-138c0 -20 3 -34.667 9 -44c8 -12 20 -18 36 -18c18 0 30.333 6.33301 37 19c5.33301 10 8 24.333 8 43z" />
    <glyph glyph-name="colon" unicode=":" horiz-adv-x="168" 
d="M30 0v120h108v-120h-108zM30 392v120h108v-120h-108z" />
    <glyph glyph-name="semicolon" unicode=";" horiz-adv-x="171" 
d="M33 392v120h108v-120h-108zM80 -132h-50l47 132h-44v120h108v-129z" />
    <glyph glyph-name="less" unicode="&#x3c;" 
d="M500 274v-84l-460 179v76l460 179v-84l-353 -133z" />
    <glyph glyph-name="equal" unicode="=" 
d="M40 381v76h460v-76h-460zM40 234v76h460v-76h-460z" />
    <glyph glyph-name="greater" unicode="&#x3e;" 
d="M40 274v-84l460 179v76l-460 179v-84l353 -133z" />
    <glyph glyph-name="question" unicode="?" horiz-adv-x="328" 
d="M197 0h-108v120h108v-120zM193 158h-100v103c0 16.667 2.83301 33.334 8.5 50.001s10.5 28.5 14.5 35.5s11 18.167 21 33.5l47 72c10 15.333 15 38.666 15 69.999v46c0 15.333 -2 27 -6 35c-4.66699 10 -14 15 -28 15c-13.333 0 -23 -5 -29 -15
c-4.66699 -9.33301 -7 -22.333 -7 -39v-77h-114v93c0 39.333 12 70.333 36 93c26.667 24.667 65.334 37 116.001 37c53.333 0 92.666 -14.333 117.999 -43c18.667 -20.667 28 -50.667 28 -90v-77c0 -28 -7 -53.667 -21 -77c-6 -10 -15.5 -23.167 -28.5 -39.5
s-20.5 -25.833 -22.5 -28.5c-32 -44.667 -48 -84 -48 -118v-79z" />
    <glyph glyph-name="at" unicode="@" horiz-adv-x="589" 
d="M557 0l-377.001 0.00195312c-38.667 0 -71.667 10 -99 30c-32.667 24 -49 57.333 -49 100v432c0 18 5 36.667 15 56s21 34.333 33 45s28.5 19.5 49.5 26.5s40.833 10.5 59.5 10.5h239c38.667 0 70.334 -13.333 95.001 -40c22.667 -24.667 34 -57 34 -97v-311
c0 -31.333 -8 -59.333 -24 -84c-16.667 -25.333 -43.334 -38 -80.001 -38h-65c-28.667 0 -46.667 13.333 -54 40c-4 -12.667 -11 -23.334 -21 -32.001c-14.667 -12 -32.667 -18 -54 -18c-30.667 0 -53.334 12 -68.001 36c-8 14 -12 35.333 -12 64v262c0 26 5 47 15 63
c14 22.667 36.333 34 67 34c14.667 0 29.334 -6 44.001 -18c13.333 -11.333 22 -21.666 26 -30.999v41h88v-357c0 -12 5 -19.667 15 -23s18.333 -2.33301 25 3c11.333 6.66699 17 19 17 37v318c0 33.333 -8.66699 56.666 -26 69.999c-14 10.667 -36.333 16 -67 16h-168
c-38 0 -66 -13.333 -84 -40c-12 -17.333 -18 -41 -18 -71v-367c0 -32.667 9.66699 -56.334 29 -71.001c18.667 -14 42.334 -21 71.001 -21h344v-65zM265.999 470.002l-0.000976562 -226.001c0 -13.333 1.33301 -23.666 4 -30.999c4 -12 12 -18 24 -18
c13.333 0 23 6.66699 29 20c4.66699 10 7 24 7 42v186c0 20 -2 34 -6 42c-6 10.667 -15 16 -27 16c-9.33301 0 -16.666 -2.33301 -21.999 -7c-6 -5.33301 -9 -13.333 -9 -24z" />
    <glyph glyph-name="A" unicode="A" horiz-adv-x="406" 
d="M402 0h-118l-20 129h-122l-20 -129h-118l129 700h140zM155 227h96l-47 279h-2z" />
    <glyph glyph-name="B" unicode="B" horiz-adv-x="394" 
d="M30 0v699.998h211c38 0 69 -12.667 93 -38s36 -63 36 -113v-58c0 -27.333 -5 -49.333 -15 -66c-12 -21.333 -30 -33.666 -54 -36.999v-2c28.667 -8 49 -25.667 61 -53c8 -17.333 12 -42.666 12 -75.999v-116c0 -37.333 -7 -67.333 -21 -90
c-20.667 -34 -54.667 -51 -102 -51h-221zM144 97.998l66.001 0.000976562c21.333 0 35.666 7 42.999 21c4.66699 9.33301 7 30.666 7 63.999v60c0 34.667 -3.66699 57 -11 67c-9.33301 14 -27.333 21 -54 21h-51v-233zM144.001 428.999h56c18.667 0 33 6 43 18
c8.66699 10.667 13 27 13 49v46c0 19.333 -3 33.333 -9 42c-8.66699 12 -23.667 18 -45 18h-58v-173z" />
    <glyph glyph-name="C" unicode="C" horiz-adv-x="401" 
d="M376 264l-0.000976562 -117.999c0 -47.333 -14 -84.333 -42 -111c-32 -30 -74.667 -45 -128 -45c-51.333 0 -93.333 15 -126 45c-20 18 -33 37.5 -39 58.5s-9 45.5 -9 73.5v384c0 48 15.667 86.333 47 115c32 29.333 73.667 44 125 44
c48.667 0 88.334 -13.667 119.001 -41c34 -30 51 -72.667 51 -128v-77h-114v86c0 20.667 -4.66699 36 -14 46c-10 10.667 -23.667 16 -41 16s-31.333 -4.66699 -42 -14c-11.333 -10 -17 -27 -17 -51v-393c0 -22.667 4.66699 -39 14 -49c11.333 -11.333 27 -17 47 -17
s34.667 6 44 18c7.33301 9.33301 11 23.666 11 42.999v115h114z" />
    <glyph glyph-name="D" unicode="D" horiz-adv-x="415" 
d="M35 0v700.002h215c40 0 71.667 -11.333 95 -34c12 -11.333 20.833 -24.833 26.5 -40.5s9 -28.834 10 -39.501s1.5 -25.334 1.5 -44.001v-374c0 -62 -15.333 -107 -46 -135c-23.333 -22 -56 -33 -98 -33h-204zM149 95.002l56 -0.000976562c25.333 0 43 8 53 24
c7.33301 10 11 31 11 63v342c0 28.667 -4 48.334 -12 59.001c-10 12.667 -25.667 19 -47 19h-61v-507z" />
    <glyph glyph-name="E" unicode="E" horiz-adv-x="352" 
d="M35 0v700h292v-98h-178v-168h138v-98h-138v-238h193v-98h-307z" />
    <glyph glyph-name="F" unicode="F" horiz-adv-x="329" 
d="M149 0h-114v700h291v-98h-177v-178h136v-98h-136v-326z" />
    <glyph glyph-name="G" unicode="G" horiz-adv-x="406" 
d="M260 156l-0.00195312 135.001h-64v98h178v-389h-93v67h-3c-7.33301 -22.667 -17.666 -40.334 -30.999 -53.001c-16.667 -16 -41.667 -24 -75 -24c-44.667 0 -79 13.667 -103 41c-24.667 28.667 -37 67.334 -37 116.001v398c0 59.333 18 102.666 54 129.999
c30 23.333 68.333 35 115 35c58.667 0 102.334 -14 131.001 -42c28 -26.667 42 -65.667 42 -117v-75h-114v68c0 25.333 -4.66699 43 -14 53c-10 10 -24 15 -42 15c-20.667 0 -35.667 -5.66699 -45 -17c-8.66699 -10 -13 -26.667 -13 -50v-384
c0 -23.333 3.33301 -40.333 10 -51c10 -15.333 27 -23 51 -23c18 0 31.667 6.66699 41 20c8 10.667 12 27 12 49z" />
    <glyph glyph-name="H" unicode="H" horiz-adv-x="416" 
d="M267 333h-118v-333h-114v700h114v-269h118v269h114v-700h-114v333z" />
    <glyph glyph-name="I" unicode="I" horiz-adv-x="184" 
d="M35 0v700h114v-700h-114z" />
    <glyph glyph-name="J" unicode="J" horiz-adv-x="269" 
d="M5 0l0.000976562 98h67c21.333 0 34.666 3 39.999 9c5.33301 5.33301 8 17 8 35v558h114v-567c0 -33.333 -5 -60.333 -15 -81c-16.667 -34.667 -50 -52 -100 -52h-114z" />
    <glyph glyph-name="K" unicode="K" horiz-adv-x="409" 
d="M149 0h-114v700h114v-297h3l118 297h116l-136 -331l154 -369h-116l-135 338h-4v-338z" />
    <glyph glyph-name="L" unicode="L" horiz-adv-x="342" 
d="M337 0h-302v700h114v-602h188v-98z" />
    <glyph glyph-name="M" unicode="M" horiz-adv-x="568" 
d="M338 0h-108l-82 527h-5l6 -93v-434h-114v700h180l67 -452h4l67 452h180v-700h-114v434l6 93h-5z" />
    <glyph glyph-name="N" unicode="N" horiz-adv-x="414" 
d="M384 0h-122l-119 413l-4 -1l5 -79v-333h-114v700h126l117 -395h3l-6 74v321h114v-700z" />
    <glyph glyph-name="O" unicode="O" horiz-adv-x="412" 
d="M380 546v-392c0 -16.667 -0.666992 -30.5 -2 -41.5s-5.66602 -24.167 -12.999 -39.5s-18 -29.333 -32 -42c-31.333 -27.333 -73.666 -41 -126.999 -41s-95.666 13.667 -126.999 41c-20 18 -32.833 36.5 -38.5 55.5s-8.5 41.5 -8.5 67.5v392
c0 16.667 0.666992 30.5 2 41.5s5.66602 24.167 12.999 39.5s18 29.333 32 42c31.333 27.333 73.666 41 126.999 41s95.666 -13.667 126.999 -41c20 -18 32.833 -36.5 38.5 -55.5s8.5 -41.5 8.5 -67.5zM146 542v-384c0 -22.667 3.66699 -39 11 -49c10 -14 26.333 -21 49 -21
s39 7 49 21c7.33301 10 11 26.333 11 49v384c0 22.667 -3.66699 39 -11 49c-10 14 -26.333 21 -49 21s-39 -7 -49 -21c-7.33301 -10 -11 -26.333 -11 -49z" />
    <glyph glyph-name="P" unicode="P" horiz-adv-x="384" 
d="M149 0l-114 -0.000976562v700h191c46 0 82.333 -14 109 -42c22.667 -23.333 34 -60.333 34 -111v-105c0 -54 -11.333 -92.667 -34 -116c-21.333 -22.667 -55 -35 -101 -37c-26.667 -1.33301 -55 0.333984 -85 5.00098v-294zM149 391.999h61.001c20.667 0 34 7 40 21
c3.33301 6.66699 5 23.667 5 51v75c0 22 -3.33301 37.333 -10 46c-8.66699 11.333 -23.334 17 -44.001 17h-52v-210z" />
    <glyph glyph-name="Q" unicode="Q" horiz-adv-x="412" 
d="M244 -9l0.00195312 -17.001c0 -8 1.66699 -13.333 5 -16s11.666 -4 24.999 -4h67v-94h-104c-30.667 0 -54 9 -70 27c-11.333 12.667 -17 33.667 -17 63v46c-26 5.33301 -49.667 17 -71 35c-14 12 -24.667 25.833 -32 41.5s-11.666 28.834 -12.999 39.501s-2 24.667 -2 42
v392c0 16.667 0.666992 30.5 2 41.5s5.66602 24.167 12.999 39.5s18 29.333 32 42c31.333 27.333 73.666 41 126.999 41s95.666 -13.667 126.999 -41c20 -18 32.833 -36.5 38.5 -55.5s8.5 -41.5 8.5 -67.5v-392c0 -16.667 -0.666992 -30.5 -2 -41.5
s-5.66602 -24.333 -12.999 -40s-18 -29.5 -32 -41.5c-24 -20 -53.667 -33.333 -89 -40zM146.002 541.999v-384c0 -22.667 3.66699 -39 11 -49c10 -14 26.333 -21 49 -21s39 7 49 21c7.33301 10 11 26.333 11 49v384c0 22.667 -3.66699 39 -11 49c-10 14 -26.333 21 -49 21
s-39 -7 -49 -21c-7.33301 -10 -11 -26.333 -11 -49z" />
    <glyph glyph-name="R" unicode="R" horiz-adv-x="403" 
d="M398 0h-129c-11.333 20 -17 47.667 -17 83v157c0 26.667 -5.66699 45 -17 55c-8.66699 7.33301 -22.334 11 -41.001 11h-45v-306h-114v700h188c56 0 96 -14.333 120 -43c20 -24 30 -57.333 30 -100v-80c0 -36 -10 -64.333 -30 -85
c-15.333 -15.333 -33.666 -24.333 -54.999 -27v-3c18 -6 32.333 -13.667 43 -23c23.333 -20.667 35 -50.667 35 -90v-150c0 -32.667 2 -55 6 -67s12.667 -21 26 -27v-5zM149 411h50.999c19.333 0 33.333 3.33301 42 10c11.333 8.66699 17 24 17 46v72c0 22 -3 37.667 -9 47
c-7.33301 10.667 -19.666 16 -36.999 16h-64v-191z" />
    <glyph glyph-name="S" unicode="S" horiz-adv-x="390" 
d="M25 233l113.997 -0.00292969v-63c0 -27.333 2.33301 -45.666 7 -54.999c8 -18 24.667 -27 50 -27c20.667 0 35.334 4.66699 44.001 14c7.33301 8.66699 11 24.334 11 47.001v46c0 30.667 -12 57 -36 79l-117 108c-22 20.667 -37.667 39 -47 55c-15.333 26 -23 56 -23 90
v56c0 34 12.667 63 38 87c28.667 26.667 72.334 40 131.001 40c54.667 0 96.334 -14 125.001 -42c26.667 -26 40 -61.667 40 -107v-71h-114v58c0 22 -4.33301 38 -13 48c-10 10.667 -23 16 -39 16c-18.667 0 -32.667 -4.66699 -42 -14c-8 -8 -12 -20.333 -12 -37v-32
c0 -21.333 9.33301 -40.333 28 -57l117 -107c16.667 -15.333 29.5 -28.166 38.5 -38.499s17.833 -25.333 26.5 -45s13 -41.167 13 -64.5v-80c0 -45.333 -13.333 -81 -40 -107c-27.333 -26.667 -68.333 -40 -123 -40c-46.667 0 -85.667 10.667 -117 32
c-40 28 -60 69.333 -60 124v87z" />
    <glyph glyph-name="T" unicode="T" horiz-adv-x="368" 
d="M242 0h-114v602h-123v98h358v-98h-121v-602z" />
    <glyph glyph-name="U" unicode="U" horiz-adv-x="412" 
d="M379 700l-0.000976562 -546.001c0 -29.333 -3.33301 -54.166 -10 -74.499s-21.667 -39.166 -45 -56.499c-30 -22 -69.333 -33 -118 -33c-49.333 0 -88.666 11 -117.999 33c-23.333 17.333 -38.333 36.166 -45 56.499s-10 45.5 -10 75.5v545h114v-541
c0 -22.667 3.66699 -39.334 11 -50.001c10 -14 26 -21 48 -21s38 7 48 21c7.33301 10.667 11 27.334 11 50.001v541h114z" />
    <glyph glyph-name="V" unicode="V" horiz-adv-x="374" 
d="M255 0h-136l-115 700h120l63 -484l63 484h120z" />
    <glyph glyph-name="W" unicode="W" horiz-adv-x="592" 
d="M488 0h-128l-64 429l-64 -429h-128l-94 700h120l42 -412v-40h6l5 55l55 397h116l55 -397l5 -55h6v40l42 412h120z" />
    <glyph glyph-name="X" unicode="X" horiz-adv-x="404" 
d="M399 0h-120l-63 188l-12 41h-4l-12 -41l-63 -188h-120l136 377l-114 323h120l53 -184h4l53 184h120l-114 -322z" />
    <glyph glyph-name="Y" unicode="Y" horiz-adv-x="384" 
d="M249 0h-114v318l-130 382h120l57 -215l10 -28l10 28l57 215h120l-130 -382v-318z" />
    <glyph glyph-name="Z" unicode="Z" horiz-adv-x="365" 
d="M345 0h-330v110l208 492h-173v98h295v-103l-208 -499h208v-98z" />
    <glyph glyph-name="bracketleft" unicode="[" horiz-adv-x="269" 
d="M259 -150h-224v850h224v-80h-124v-690h124v-80z" />
    <glyph glyph-name="backslash" unicode="\" horiz-adv-x="440" 
d="M351 -160l-346 860h84l346 -860h-84z" />
    <glyph glyph-name="bracketright" unicode="]" horiz-adv-x="269" 
d="M10 -150v80h124v690h-124v80h224v-850h-224z" />
    <glyph glyph-name="asciicircum" unicode="^" horiz-adv-x="444" 
d="M10 391v84l212 225l212 -225v-84l-212 184z" />
    <glyph glyph-name="underscore" unicode="_" horiz-adv-x="460" 
d="M0 315v76h460v-76h-460z" />
    <glyph glyph-name="grave" unicode="`" horiz-adv-x="325" 
d="M213 551l-181 107l67 80l145 -145z" />
    <glyph glyph-name="a" unicode="a" horiz-adv-x="331" 
d="M306 0l-96.9971 -0.000976562l-1 35c-6.66699 -10.667 -17.334 -20.667 -32.001 -30c-16 -10 -37.333 -15 -64 -15c-31.333 0 -55 10.667 -71 32c-17.333 24 -26 57 -26 99c0 52.667 20.333 97.334 61 134.001c34 31.333 74.667 59 122 83v42
c0 16.667 -2.33301 28.334 -7 35.001c-5.33301 8.66699 -15 13 -29 13c-12.667 0 -22.334 -4.33301 -29.001 -13c-4.66699 -6 -7 -17.667 -7 -35v-35h-104v59c0 31.333 10 57.333 30 78c25.333 26.667 62.666 40 111.999 40c52.667 0 91 -13.667 115 -41
c18 -20.667 27 -51.334 27 -92.001v-389zM198.003 121.999v126c-26.667 -17.333 -46.334 -35.666 -59.001 -54.999c-10.667 -16.667 -16 -38.667 -16 -66c0 -18 2.33301 -31.333 7 -40c6.66699 -11.333 17.667 -17 33 -17c12.667 0 22.334 6 29.001 18
c4 7.33301 6 18.666 6 33.999z" />
    <glyph glyph-name="b" unicode="b" horiz-adv-x="342" 
d="M131 0l-101 -0.000976562v700h108v-231c8 12 18.667 22.667 32 32c18 12.667 38.667 19 62 19c28 0 49.333 -8.66699 64 -26c14 -16 21 -41 21 -75v-323c0 -34.667 -9.66699 -61.667 -29 -81c-16.667 -16.667 -39.334 -25 -68.001 -25c-26 0 -46.333 8 -61 24
c-11.333 12.667 -20.666 29.334 -27.999 50.001v-64zM137 363.999v-201.999c0 -18.667 1.66699 -34 5 -46c6 -23.333 18.333 -35 37 -35c13.333 0 22 6.66699 26 20c2.66699 8 4 20.333 4 37v236c0 14 -1.33301 24.667 -4 32c-5.33301 12.667 -15 19 -29 19
s-24.667 -6.66699 -32 -20c-4.66699 -8.66699 -7 -22.334 -7 -41.001z" />
    <glyph glyph-name="c" unicode="c" horiz-adv-x="331" 
d="M311 196l0.000976562 -71.002c0 -28 -4 -51.333 -12 -70c-19.333 -43.333 -62.333 -65 -129 -65c-60 0 -102 20.333 -126 61c-12.667 21.333 -19 49 -19 83v250c0 38.667 7.66699 68.334 23 89.001c11.333 15.333 28.166 27.333 50.499 36s46.166 13 71.499 13
c52.667 0 91.334 -16.667 116.001 -50c15.333 -21.333 23 -50 23 -86v-71h-106v66c0 14 -2 24.667 -6 32c-4.66699 10 -13.667 15 -27 15c-12.667 0 -22 -4 -28 -12c-6 -7.33301 -9 -18.666 -9 -33.999v-245c0 -17.333 2.66699 -30.333 8 -39c6 -9.33301 15.667 -14 29 -14
c12.667 0 21.667 4.33301 27 13c4 6 6 19 6 39v60h108z" />
    <glyph glyph-name="d" unicode="d" horiz-adv-x="343" 
d="M313 0h-99l-2 46c-8 -16.667 -18 -29.667 -30 -39c-15.333 -11.333 -37.333 -17 -66 -17c-29.333 0 -52.333 11.333 -69 34c-14.667 20.667 -22 51.667 -22 93v300c0 34 8 59.667 24 77c17.333 18.667 40.333 28 69 28c21.333 0 38.666 -5 51.999 -15
c14.667 -10.667 26.334 -25.667 35.001 -45v238h108v-700zM205 144v233.001c0 16 -2.66699 28.333 -8 37c-7.33301 11.333 -17.666 17 -30.999 17c-10.667 0 -19 -4.33301 -25 -13c-5.33301 -7.33301 -8 -20 -8 -38v-243c0 -16.667 1.66699 -29 5 -37
c5.33301 -12.667 14.666 -19 27.999 -19c16 0 27 6.66699 33 20c4 9.33301 6 23.666 6 42.999z" />
    <glyph glyph-name="e" unicode="e" horiz-adv-x="338" 
d="M313 160l-0.000976562 -43.0029c0 -33.333 -9 -61.666 -27 -84.999c-22 -28 -60.667 -42 -116 -42c-49.333 0 -86 12.667 -110 38c-23.333 24.667 -35 62.667 -35 114v241c0 48.667 13.333 84 40 106s61.334 33 104.001 33c43.333 0 78 -11 104 -33
c26.667 -23.333 40 -60.666 40 -111.999v-165h-180v-75c0 -17.333 1.66699 -29.666 5 -36.999c4.66699 -10.667 15 -16 31 -16s26.333 5.66699 31 17c3.33301 7.33301 5 19 5 35v24h108zM204.999 299.997v79c0 18 -3 30.667 -9 38s-15 11 -27 11s-21 -3.66699 -27 -11
s-9 -20 -9 -38v-79h72z" />
    <glyph glyph-name="f" unicode="f" horiz-adv-x="251" 
d="M174 0h-108v418h-56v94h56v86c0 33.333 9.66699 59 29 77c18 16.667 44.667 25 80 25h72v-94h-25c-22 0 -36 -4 -42 -12c-4 -4.66699 -6 -18 -6 -40v-42h67v-94h-67v-418z" />
    <glyph glyph-name="g" unicode="g" horiz-adv-x="338" 
d="M25 -11l108.002 0.000976562v-12c0 -8.66699 1.66699 -15.334 5 -20.001c5.33301 -8.66699 14.666 -13 27.999 -13s22.666 4.33301 27.999 13c4 6.66699 6 18.667 6 36v69c-6.66699 -14.667 -16.667 -26.667 -30 -36c-12 -8.66699 -30.333 -13 -55 -13
c-33.333 0 -58 11.333 -74 34c-10.667 15.333 -16 38.333 -16 69v298c0 44 14.667 75 44 93c16.667 10 35 15 55 15c22 0 40.333 -6 55 -18c12 -10 20.333 -21.667 25 -35l3 1v39h101v-524c0 -42.667 -9.66699 -75 -29 -97c-22.667 -25.333 -59 -38 -109 -38
s-86.667 11.333 -110 34c-26 25.333 -37.667 60.333 -35 105zM200.002 157.001l-0.000976562 227.002c0 13.333 -2 23.666 -6 30.999c-5.33301 9.33301 -14.333 14 -27 14c-13.333 0 -22.666 -4.66699 -27.999 -14c-4 -6.66699 -6 -18 -6 -34v-234
c0 -11.333 1.66699 -22 5 -32c4.66699 -10 13.667 -15 27 -15c14 0 24 6.66699 30 20c3.33301 13.333 5 25.666 5 36.999z" />
    <glyph glyph-name="h" unicode="h" horiz-adv-x="343" 
d="M318 0h-108.001v380c0 18.667 -2.33301 31 -7 37c-6 8 -14 12 -24 12c-18.667 0 -30.667 -10.333 -36 -31c-3.33301 -12 -5 -29.333 -5 -52v-346h-108v700h108v-239h3c3.33301 12 10 23 20 33c18.667 18.667 42 28 70 28c32.667 0 56.334 -12 71.001 -36
c10.667 -18 16 -43 16 -75v-411z" />
    <glyph glyph-name="i" unicode="i" horiz-adv-x="168" 
d="M138 0h-108v512h108v-512zM138 572h-108v128h108v-128z" />
    <glyph glyph-name="j" unicode="j" horiz-adv-x="168" 
d="M-57 -150l0.000976562 94.002h57c7.33301 0 13.333 0.833008 18 2.5s7.66699 5 9 10s2.16602 8.66699 2.49902 11s0.5 7.16602 0.5 14.499v530h108v-546c0 -42.667 -5.33301 -71.334 -16 -86.001c-14.667 -20 -38.667 -30 -72 -30h-107zM138.001 572.002h-108v128h108
v-128z" />
    <glyph glyph-name="k" unicode="k" horiz-adv-x="329" 
d="M326 0h-108l-78 249h-2v-249h-108v700h108v-397h3l75 209h108l-91 -251z" />
    <glyph glyph-name="l" unicode="l" horiz-adv-x="168" 
d="M138 0h-108v700h108v-700z" />
    <glyph glyph-name="m" unicode="m" horiz-adv-x="515" 
d="M490 2l-107.998 -1.99902v376c0 17.333 -1 29.333 -3 36c-4 14.667 -13.667 22 -29 22c-13.333 0 -23 -5 -29 -15c-4.66699 -8 -7 -18.667 -7 -32v-387h-108v374c0 18 -1 31 -3 39c-4 14 -13.333 21 -28 21c-12.667 0 -22.334 -5 -29.001 -15
c-5.33301 -8.66699 -8 -19.667 -8 -33v-386h-108v512h104l2 -42c8.66699 14 20 26 34 36c15.333 10.667 34 16 56 16c22.667 0 40.667 -5.33301 54 -16c12 -9.33301 20.333 -22 25 -38c10 16.667 23 29.667 39 39c18 10 37.333 15 58 15
c27.333 0 48.666 -8.33301 63.999 -25c16 -16.667 24 -44.334 24 -83.001v-412z" />
    <glyph glyph-name="n" unicode="n" horiz-adv-x="343" 
d="M318 0l-108 0.000976562v372c0 22 -1.66699 36.333 -5 43c-5.33301 12.667 -15.333 19 -30 19c-14 0 -24.333 -6 -31 -18c-4 -6.66699 -6 -17.667 -6 -33v-383h-108v512h99l2 -48c10.667 20 25 34.667 43 44c16.667 9.33301 36.334 14 59.001 14
c25.333 0 45.666 -7.66699 60.999 -23c16 -16.667 24 -48.334 24 -95.001v-404z" />
    <glyph glyph-name="o" unicode="o" horiz-adv-x="338" 
d="M133 383v-254c0 -12.667 1.66699 -22.334 5 -29.001c6 -10.667 16.333 -16 31 -16s25 5.33301 31 16c3.33301 6.66699 5 16.334 5 29.001v254c0 12.667 -1.66699 22.334 -5 29.001c-6 10.667 -16.333 16 -31 16s-25 -5.33301 -31 -16
c-3.33301 -6.66699 -5 -16.334 -5 -29.001zM313 385v-258c0 -42.667 -10.667 -75 -32 -97c-25.333 -26.667 -62.666 -40 -111.999 -40s-86.666 13.333 -111.999 40c-21.333 22 -32 54.333 -32 97v258c0 42.667 10.667 75 32 97c25.333 26.667 62.666 40 111.999 40
s86.666 -13.333 111.999 -40c21.333 -22 32 -54.333 32 -97z" />
    <glyph glyph-name="p" unicode="p" horiz-adv-x="343" 
d="M138 -150l-107.999 0.000976562v662h102l2 -40c9.33301 12 20.333 22 33 30c22 13.333 43 20 63 20c32.667 0 57 -13.333 73 -40c10 -16.667 15 -46.334 15 -89.001v-309c0 -32.667 -6.66699 -57.667 -20 -75c-15.333 -20 -38 -30 -68 -30
c-20.667 0 -40.334 6 -59.001 18c-14.667 10.667 -24.667 23 -30 37l-3 1v-185zM210.001 132.001v250c0 20 -2.66699 34 -8 42c-6.66699 8 -15.667 12 -27 12c-14 0 -24 -4.66699 -30 -14c-4.66699 -6.66699 -7 -20.667 -7 -42v-241c0 -22.667 3 -40 9 -52
c8.66699 -14.667 19.667 -22 33 -22c12 0 20.333 5.33301 25 16c3.33301 8 5 25 5 51z" />
    <glyph glyph-name="q" unicode="q" horiz-adv-x="343" 
d="M313 -150l-107.999 0.000976562v183c-8 -18 -18.667 -31.667 -32 -41c-11.333 -8 -27 -12 -47 -12c-34.667 0 -60.334 10.667 -77.001 32c-16 20.667 -24 53 -24 97v299c0 46 12.333 77.667 37 95c18 12.667 38.333 19 61 19c20.667 0 38.667 -5.33301 54 -16
c16 -10.667 28.667 -25.334 38 -44.001v56h98v-668zM205.001 147.001l-0.000976562 234.002c0 16 -2 27.667 -6 35c-5.33301 9.33301 -15.333 14 -30 14c-15.333 0 -25.666 -5 -30.999 -15c-3.33301 -6.66699 -5 -18.334 -5 -35.001v-261
c0 -16.667 2.66699 -28.334 8 -35.001c5.33301 -8 13.666 -12 24.999 -12c18.667 0 30.334 10 35.001 30c2.66699 10 4 25 4 45z" />
    <glyph glyph-name="r" unicode="r" horiz-adv-x="263" 
d="M138 0l-108.001 -0.000976562v512h105v-47h2c6.66699 18 17 32 31 42c14.667 10 33.334 15 56.001 15h31v-108h-39c-28.667 0 -48.667 -6.33301 -60 -19c-12 -13.333 -18 -35.666 -18 -66.999v-328z" />
    <glyph glyph-name="s" unicode="s" horiz-adv-x="316" 
d="M15 171l108.001 0.00390625v-53c0 -14 3 -24 9 -30c6 -6.66699 15.667 -10 29 -10c11.333 0 19.666 3.66699 24.999 11c4.66699 7.33301 7 17.666 7 30.999c0 27.333 -7 48 -21 62l-104 103c-16 16 -28 33.333 -36 52c-8 19.333 -12 39 -12 59c0 23.333 4 43 12 59
c8.66699 17.333 19.667 30.666 33 39.999c25.333 18 58 27 98 27c39.333 0 70.666 -9.33301 93.999 -28c26 -20.667 39 -54.334 39 -101.001v-37h-104v41c0 13.333 -2.66699 22.666 -8 27.999c-6 6 -14 9 -24 9c-8 0 -15.333 -2.66699 -22 -8
c-6.66699 -6 -10 -15.667 -10 -29c0 -16 6.33301 -30.333 19 -43l110 -111c29.333 -29.333 44 -68 44 -116c0 -36 -8.33301 -64.667 -25 -86c-14.667 -18.667 -31 -31.667 -49 -39c-18 -8 -42 -12 -72 -12c-21.333 0 -41.666 3 -60.999 9s-36 17.333 -50 34
c-19.333 22 -29 51.333 -29 88v50z" />
    <glyph glyph-name="t" unicode="t" horiz-adv-x="253" 
d="M243 0l-77.002 -0.000976562c-27.333 0 -47.666 3 -60.999 9c-15.333 7.33301 -26.666 18.666 -33.999 33.999c-5.33301 11.333 -8 30 -8 56v319h-59v94h59v188h108v-188h72v-94h-72v-302c0 -7.33301 1.5 -12.666 4.5 -15.999s5.5 -5.16602 7.5 -5.49902
s5.33301 -0.5 10 -0.5h50v-94z" />
    <glyph glyph-name="u" unicode="u" horiz-adv-x="343" 
d="M313 0h-102v52h-2c-8.66699 -16.667 -18.667 -30.334 -30 -41.001c-14.667 -14 -35.667 -21 -63 -21c-40 0 -67 15 -81 45c-6.66699 14.667 -10 36 -10 64v413h108v-369c0 -21.333 1.33301 -34.666 4 -39.999c4.66699 -12.667 15 -19 31 -19c14.667 0 25 6.33301 31 19
c4 8.66699 6 22 6 40v369h108v-512z" />
    <glyph glyph-name="v" unicode="v" horiz-adv-x="311" 
d="M210 0h-109l-97 512h108l38 -262l5 -46h3l3 46l38 262h108z" />
    <glyph glyph-name="w" unicode="w" horiz-adv-x="452" 
d="M368 0h-104l-38 269l-38 -269h-104l-80 512h108l28 -239l2 -45l3 -1l39 285h84l39 -285l3 1l2 45l28 239h108z" />
    <glyph glyph-name="x" unicode="x" horiz-adv-x="332" 
d="M166 387l42 125h108l-90 -236l102 -276h-108l-54 158l-54 -158h-108l102 276l-90 236h108z" />
    <glyph glyph-name="y" unicode="y" horiz-adv-x="314" 
d="M4 -150l-0.000976562 93.999h65c18.667 0 31.667 5 39 15c8 10.667 9 28.334 3 53.001l-101 500h108l43 -331h4l37 331h108l-95 -579c-5.33301 -32 -20.333 -54.333 -45 -67c-21.333 -10.667 -45.666 -16 -72.999 -16h-93z" />
    <glyph glyph-name="z" unicode="z" horiz-adv-x="301" 
d="M285 0h-273v100l162 318h-134v94h246v-100l-162 -318h161v-94z" />
    <glyph glyph-name="braceleft" unicode="{" horiz-adv-x="327" 
d="M30 237l0.00195312 92.9941c24.667 0 45.667 10.5 63 31.5s26 53.833 26 98.5c0 11.333 -0.666992 29 -2 53c-1.33301 22.667 -2 39.334 -2 50.001c0 34 5.66699 62.833 17 86.5s26.666 40.834 45.999 51.501s38.5 18 57.5 22s39.5 5.33301 61.5 4v-73
c-46.667 -13.333 -70 -43.666 -70 -90.999c0 -0.666992 1 -19 3 -55c1.33301 -14 2 -34.667 2 -62c0 -76.667 -38 -129.667 -114 -159v-7c43.333 -18.667 73.166 -40.667 89.499 -66s24.5 -56.333 24.5 -93c0 -27.333 -0.666992 -48 -2 -62
c0 -4 -0.333008 -9.83301 -1 -17.5s-1.16699 -14.667 -1.5 -21s-0.5 -12.166 -0.5 -17.499c0 -27.333 7 -48.166 21 -62.499s30.333 -23.5 49 -27.5v-73c-65.333 -3.33301 -112 10.5 -140 41.5s-42 71.5 -42 121.5c0 11.333 0.666992 26.333 2 45s2 38.334 2 59.001
c0 80.667 -29.667 124 -89 130z" />
    <glyph glyph-name="bar" unicode="|" horiz-adv-x="154" 
d="M35 0v700h84v-700h-84z" />
    <glyph glyph-name="braceright" unicode="}" horiz-adv-x="327" 
d="M297 330l-0.00195312 -92.9941c-24.667 0 -45.667 -10.5 -63 -31.5s-26 -53.833 -26 -98.5c0 -11.333 0.666992 -29 2 -53c1.33301 -22.667 2 -39.334 2 -50.001c0 -34 -5.66699 -62.833 -17 -86.5s-26.666 -40.834 -45.999 -51.501s-38.5 -18 -57.5 -22
s-39.5 -5.33301 -61.5 -4v73c46.667 13.333 70 43.666 70 90.999c0 0.666992 -1 19 -3 55c-1.33301 14 -2 34.667 -2 62c0 76.667 38 129.667 114 159v7c-43.333 18.667 -73.166 40.667 -89.499 66s-24.5 56.333 -24.5 93c0 27.333 0.666992 48 2 62
c0 4 0.333008 9.83301 1 17.5s1.16699 14.667 1.5 21s0.5 12.166 0.5 17.499c0 27.333 -7 48.166 -21 62.499s-30.333 23.5 -49 27.5v73c65.333 3.33301 112 -10.5 140 -41.5s42 -71.5 42 -121.5c0 -10.667 -0.666992 -25.334 -2 -44.001s-2 -38.667 -2 -60
c0 -80.667 29.667 -124 89 -130z" />
    <glyph glyph-name="asciitilde" unicode="~" horiz-adv-x="464" 
d="M23 321l-12.998 98c24.667 23.333 48.667 40.333 72 51c22 10 44 15 66 15c19.333 0 40 -6 62 -18l84 -45c18 -9.33301 34.333 -13.333 49 -12c20.667 2.66699 42 15 64 37l22 22l25 -90c-18.667 -20.667 -38.334 -37 -59.001 -49c-18.667 -10.667 -37 -16 -55 -16
c-16.667 0 -32 2.33301 -46 7c-10 3.33301 -24.333 9.66602 -43 18.999l-74 39c-12.667 6.66699 -29.334 10 -50.001 10c-16 0 -33 -5.33301 -51 -16c-19.333 -11.333 -37 -28.666 -53 -51.999z" />
    <glyph glyph-name="sterling" unicode="&#xa3;" horiz-adv-x="428" 
d="M418 0h-382.999v98h69c12.667 33.333 20 69 22 107c2 51.333 -4.33301 96.666 -19 135.999h-92v91h77c-14 38.667 -21 82.334 -21 131.001c0 52 17.667 92.667 53 122c28.667 24.667 67 37 115 37c58 0 101.667 -13 131 -39c27.333 -24 41 -57.667 41 -101v-31h-114v23
c0 15.333 -4.33301 27.333 -13 36c-8.66699 9.33301 -22 14 -40 14c-18.667 0 -33.334 -6.33301 -44.001 -19c-11.333 -13.333 -16.333 -34.333 -15 -63c2 -36 9 -72.667 21 -110h154v-91h-139c14.667 -38.667 21 -80.667 19 -126c-2 -42 -9.33301 -81 -22 -117h200v-98z
" />
    <glyph glyph-name="currency" unicode="&#xa4;" horiz-adv-x="458" 
d="M152 252c0 -19.333 7.66895 -36.666 23.002 -51.999s32.666 -23 51.999 -23c18.667 0 35.834 6.83301 51.501 20.5s23.5 31.834 23.5 54.501c0 21.333 -7.33301 39.166 -22 53.499s-32.334 21.5 -53.001 21.5c-22.667 0 -40.834 -7.83301 -54.501 -23.5
s-20.5 -32.834 -20.5 -51.501zM379.002 48l-75 75.002c-28 -14 -54.333 -21 -79 -21c-23.333 0 -47.333 6.66699 -72 20l-74 -74l-54 54l73 73c-14 28 -21 53.667 -21 77s7 49 21 77l-73 73l54 54l73 -73c23.333 11.333 50 17.666 80 18.999
c32.667 1.33301 56.667 -5.66699 72 -21l75 75l54 -54l-75 -75c12.667 -26.667 19 -51.334 19 -74.001c0 -26 -6.33301 -51.333 -19 -76l75 -75z" />
    <glyph glyph-name="section" unicode="&#xa7;" horiz-adv-x="361" 
d="M269 181l11 -12c24 -26 36 -62 36 -108c0 -35.333 -8.33301 -64 -25 -86c-14.667 -18.667 -31 -31.667 -49 -39c-18 -8 -42 -12 -72 -12c-21.333 0 -41.666 3 -60.999 9c-20 6.66699 -37 18 -51 34c-18.667 22.667 -28 52 -28 88v50h108v-53c0 -14 3 -24 9 -30
c6 -6.66699 15.667 -10 29 -10c12 0 20.667 4.33301 26 13c4 6.66699 6 17.334 6 32.001c0 26 -7 45.667 -21 59l-114 103c-15.333 13.333 -27.333 30.666 -36 51.999c-8 18 -12 37.667 -12 59s4 41 12 59c6.66699 13.333 16.667 25.666 30 36.999
c14.667 12 28 20.667 40 26l-17 21c-16.667 20 -28.334 37.333 -35.001 52c-8.66699 19.333 -13 39 -13 59c0 20.667 4 40.334 12 59.001c7.33301 16 18.333 29.333 33 40c26 18 58.667 27 98 27c40.667 0 72 -9.33301 94 -28c26 -21.333 39 -55 39 -101v-37h-104v41
c0 12.667 -2.66699 22 -8 28c-6 6 -14 9 -24 9c-8 0 -15.333 -2.66699 -22 -8c-7.33301 -6 -11 -15.667 -11 -29c0 -16.667 6.66699 -31 20 -43l120 -111c31.333 -29.333 47 -68.333 47 -117c0 -30.667 -8.33301 -59 -25 -85c-12 -18.667 -26 -34.667 -42 -48zM152 288
l41.001 -40.001c9.33301 9.33301 17 19.333 23 30c8 14 12.333 28.333 13 43c1.33301 14.667 -3.33398 27.334 -14.001 38.001l-34 35c-16 -7.33301 -28 -16 -36 -26c-8.66699 -10.667 -13 -23.667 -13 -39c0 -14 6.66699 -27.667 20 -41z" />
    <glyph glyph-name="dieresis" unicode="&#xa8;" horiz-adv-x="325" 
d="M291 581h-100v119h100v-119zM135 580h-100v120h100v-120z" />
    <glyph glyph-name="copyright" unicode="&#xa9;" horiz-adv-x="578" 
d="M391 0h-204c-56.667 0 -99 19.667 -127 59c-18.667 26 -28 63.333 -28 112v358c0 48.667 9.33301 86 28 112c28 39.333 70.333 59 127 59h204c56.667 0 99 -19.667 127 -59c18.667 -26 28 -63.333 28 -112v-358c0 -48.667 -9.33301 -86 -28 -112
c-28 -39.333 -70.333 -59 -127 -59zM107 534v-368c0 -29.333 4.66699 -51 14 -65c14.667 -20.667 35.334 -31 62.001 -31h212c26.667 0 47.334 10.333 62.001 31c9.33301 14 14 35.667 14 65v368c0 29.333 -4.66699 51 -14 65c-14.667 20.667 -35.334 31 -62.001 31h-212
c-26.667 0 -47.334 -10.333 -62.001 -31c-9.33301 -14 -14 -35.667 -14 -65zM408 291l0.00195312 -81.002c0 -31.333 -10 -56.666 -30 -75.999c-21.333 -21.333 -50.333 -32 -87 -32c-34.667 0 -63.667 11 -87 33c-22 20.667 -33 50.334 -33 89.001v264
c0 32.667 11 59 33 79c23.333 20.667 52 31 86 31c33.333 0 60.666 -9.66699 81.999 -29c23.333 -20 35 -49.333 35 -88v-53h-79v60c0 14 -3 24.333 -9 31c-6.66699 7.33301 -16.334 11 -29.001 11c-12 0 -21.667 -3 -29 -9c-7.33301 -6.66699 -11 -18.667 -11 -36v-270
c0 -13.333 3 -24.333 9 -33c6.66699 -8 17.667 -12 33 -12c14 0 24 4 30 12c5.33301 8 8 18 8 30v79h78z" />
    <glyph glyph-name="guillemotleft" unicode="&#xab;" horiz-adv-x="449" 
d="M235 0h-80l-145 256l145 256h80l-121 -256zM439 0h-80l-145 256l145 256h80l-121 -256z" />
    <glyph glyph-name="logicalnot" unicode="&#xac;" horiz-adv-x="460" 
d="M0 315v76h460v-274h-84v198h-376z" />
    <glyph glyph-name="registered" unicode="&#xae;" horiz-adv-x="578" 
d="M391 0h-204c-56.667 0 -99 19.667 -127 59c-18.667 26 -28 63.333 -28 112v358c0 48.667 9.33301 86 28 112c28 39.333 70.333 59 127 59h204c56.667 0 99 -19.667 127 -59c18.667 -26 28 -63.333 28 -112v-358c0 -48.667 -9.33301 -86 -28 -112
c-28 -39.333 -70.333 -59 -127 -59zM107 534v-368c0 -29.333 4.66699 -51 14 -65c14.667 -20.667 35.334 -31 62.001 -31h212c26.667 0 47.334 10.333 62.001 31c9.33301 14 14 35.667 14 65v368c0 29.333 -4.66699 51 -14 65c-14.667 20.667 -35.334 31 -62.001 31h-212
c-26.667 0 -47.334 -10.333 -62.001 -31c-9.33301 -14 -14 -35.667 -14 -65zM422 109l-89.001 -0.000976562c-8 16 -12 35 -12 57v115c0 14 -4 24.333 -12 31c-6.66699 5.33301 -16 8 -28 8h-31v-211h-78v482h144c28 0 51 -10.333 69 -31c13.333 -16 20 -36.333 20 -61v-62
c0 -24 -7.33301 -43.333 -22 -58c-10 -10 -22.333 -16.333 -37 -19v-4c14.667 -6 24.334 -10.667 29.001 -14c16.667 -12 25 -32.333 25 -61v-104c0 -22 1.5 -37.167 4.5 -45.5s8.83301 -14.166 17.5 -17.499v-5zM249.999 391.999h36.002c13.333 0 22.666 2.33301 27.999 7
c8 7.33301 12 17.666 12 30.999v53c0 14.667 -1.66699 24.334 -5 29.001c-4.66699 7.33301 -13.334 11 -26.001 11h-45v-131z" />
    <glyph glyph-name="degree" unicode="&#xb0;" horiz-adv-x="260" 
d="M80 600c0 -13.333 5 -25 15 -35s21.667 -15 35 -15s25 5 35 15s15 21.667 15 35s-5 25 -15 35s-21.667 15 -35 15s-25 -5 -35 -15s-15 -21.667 -15 -35zM30 600c0 28 9.66699 51.667 29 71s43 29 71 29s51.667 -9.66699 71 -29s29 -43 29 -71s-9.66699 -51.667 -29 -71
s-43 -29 -71 -29s-51.667 9.66699 -71 29s-29 43 -29 71z" />
    <glyph glyph-name="plusminus" unicode="&#xb1;" 
d="M232 220v192h-192v76h192v192h76v-192h192v-76h-192v-192h-76zM40 60v76h460v-76h-460z" />
    <glyph glyph-name="acute" unicode="&#xb4;" horiz-adv-x="325" 
d="M112 551l181 107l-67 80l-145 -145z" />
    <glyph glyph-name="mu" unicode="&#xb5;" horiz-adv-x="354" 
d="M138 -150h-108v662h108v-366c0 -27.333 2.33301 -45.333 7 -54c6.66699 -12 16.667 -18 30 -18c17.333 0 29 8 35 24c4 12 6 27.333 6 46v368h108v-512h-89l-11 42c-4 -14.667 -11 -26.667 -21 -36s-21.667 -14 -35 -14c-12.667 0 -22.667 6.33301 -30 19v-161z" />
    <glyph glyph-name="mu" unicode="&#x3bc;" horiz-adv-x="354" 
d="M138 -150h-108v662h108v-366c0 -27.333 2.33301 -45.333 7 -54c6.66699 -12 16.667 -18 30 -18c17.333 0 29 8 35 24c4 12 6 27.333 6 46v368h108v-512h-89l-11 42c-4 -14.667 -11 -26.667 -21 -36s-21.667 -14 -35 -14c-12.667 0 -22.667 6.33301 -30 19v-161z" />
    <glyph glyph-name="paragraph" unicode="&#xb6;" horiz-adv-x="504" 
d="M429 -150h-94.001v754h-80v-754h-94v422h-31c-27.333 0 -51.666 9.33301 -72.999 28c-13.333 12 -22 25 -26 39s-6 31.667 -6 53v179c0 30 5 54.333 15 73c20.667 37.333 58 56 112 56h347v-96h-70v-754zM160.999 364v240c-14.667 3.33301 -26 1 -34 -7
s-12 -19.667 -12 -35v-153c0 -35.333 15.333 -50.333 46 -45z" />
    <glyph glyph-name="guillemotright" unicode="&#xbb;" horiz-adv-x="449" 
d="M214 0l121 256l-121 256h80l145 -256l-145 -256h-80zM10 0l121 256l-121 256h80l145 -256l-145 -256h-80z" />
    <glyph glyph-name="divide" unicode="&#xf7;" 
d="M40 315v76h460v-76h-460zM226 134v100h88v-100h-88zM226 472v100h88v-100h-88z" />
    <glyph glyph-name="dotlessi" unicode="&#x131;" horiz-adv-x="168" 
d="M138 0h-108v512h108v-512z" />
    <glyph glyph-name="florin" unicode="&#x192;" horiz-adv-x="349" 
d="M240 91c0 -34 -2.16504 -62.166 -6.49805 -84.499s-13.833 -44.5 -28.5 -66.5c-38 -55.333 -92.667 -83 -164 -83h-31v76h32c35.333 0 58.666 8 69.999 24c6 8 10.167 19 12.5 33s3.66602 26 3.99902 36s0.5 29.333 0.5 58v260h-57v83h57v33c0 65.333 12 115.333 36 150
c16 24 37.333 43.667 64 59s53.667 24 81 26l29 2v-76h-22c-12 0 -24.833 -3.33301 -38.5 -10s-23.5 -17.667 -29.5 -33c-6 -16.667 -9 -50.334 -9 -101.001v-50h46v-83h-46v-253z" />
    <glyph glyph-name="dotaccent" unicode="&#x2d9;" horiz-adv-x="325" 
d="M227 578h-129v122h129v-122z" />
    <glyph glyph-name="Delta" unicode="&#x394;" horiz-adv-x="406" 
d="M402 0h-398l129 700h140zM140 98h126l-62 408h-2z" />
    <glyph glyph-name="Delta" unicode="&#x2206;" horiz-adv-x="406" 
d="M402 0h-398l129 700h140zM140 98h126l-62 408h-2z" />
    <glyph glyph-name="afii10023" unicode="&#x401;" horiz-adv-x="352" 
d="M35 0v700h292v-98h-178v-172h138v-98h-138v-234h193v-98h-307zM52 745v115h100v-115h-100zM211 745v115h100v-115h-100z" />
    <glyph glyph-name="afii10051" unicode="&#x402;" horiz-adv-x="477" 
d="M5 606v94h374v-94h-148v-189c6.66699 10 16.334 20 29.001 30c13.333 10.667 25.166 18.167 35.499 22.5s24.5 6.5 42.5 6.5c40.667 0 69.667 -13.333 87 -40c14.667 -22 22 -60 22 -114v-184c0 -52.667 -14.333 -93 -43 -121c-23.333 -22 -51.333 -33 -84 -33
c-23.333 0 -45 5 -65 15v91c8.66699 -4.66699 17.667 -7 27 -7c15.333 0 26.666 3.33301 33.999 10c11.333 9.33301 17 25.333 17 48v181c0 20.667 -3.33301 35 -10 43c-7.33301 10 -20 15 -38 15c-21.333 0 -36.666 -10.667 -45.999 -32c-5.33301 -12.667 -8 -30 -8 -52
v-296h-114v606h-112z" />
    <glyph glyph-name="afii10052" unicode="&#x403;" horiz-adv-x="347" 
d="M149 0h-114v700h308v-98h-194v-602zM108 730l-17 48l228 109l35 -98z" />
    <glyph glyph-name="afii10053" unicode="&#x404;" horiz-adv-x="394" 
d="M374 269l0.000976562 -113.001c0 -64 -22.333 -110.333 -67 -139c-28 -18 -64 -27 -108 -27c-44.667 0 -79.667 8 -105 24c-19.333 12 -33.833 27.5 -43.5 46.5s-15.167 35.333 -16.5 49s-2 33.167 -2 58.5v362c0 71.333 16.333 120.333 49 147c26.667 22 66 33 118 33
c42.667 0 78.334 -8.66699 107.001 -26c40 -25.333 60 -69.333 60 -132v-53h-114v52c0 22 -4 37.333 -12 46c-8.66699 10 -22.334 15 -41.001 15c-16.667 0 -29.334 -4.33301 -38.001 -13c-10 -9.33301 -15 -25 -15 -47v-127h173v-98h-173v-167c0 -25.333 3 -42.333 9 -51
c8 -14 22.667 -21 44 -21c25.333 0 42.333 7.33301 51 22c6.66699 10.667 10 28.334 10 53.001v106h114z" />
    <glyph glyph-name="afii10054" unicode="&#x405;" horiz-adv-x="390" 
d="M25 233l113.998 -0.000976562v-63c0 -27.333 2.33301 -45.666 7 -54.999c8 -18 24.667 -27 50 -27c20.667 0 35.334 4.66699 44.001 14c7.33301 8.66699 11 24.334 11 47.001v46c0 30.667 -12 57 -36 79l-117 108c-22 20.667 -37.667 39 -47 55c-15.333 26 -23 56 -23 90
v56c0 35.333 12.667 64.333 38 87c29.333 26.667 73 40 131 40c54.667 0 96.334 -14 125.001 -42c26.667 -26 40 -61.667 40 -107v-71h-114v58c0 23.333 -4.33301 39.666 -13 48.999c-9.33301 10 -22.333 15 -39 15c-18 0 -31.667 -4.33301 -41 -13
c-8.66699 -8 -13 -21.333 -13 -40v-30c0 -21.333 9.33301 -40.333 28 -57l117 -107c16.667 -15.333 29.5 -28.166 38.5 -38.499s17.833 -25.333 26.5 -45s13 -41.167 13 -64.5v-80c0 -45.333 -13.333 -81 -40 -107c-27.333 -26.667 -68.333 -40 -123 -40
c-46.667 0 -85.667 10.667 -117 32c-40 27.333 -60 68.666 -60 123.999v87z" />
    <glyph glyph-name="afii10055" unicode="&#x406;" horiz-adv-x="184" 
d="M35 0v700h114v-700h-114z" />
    <glyph glyph-name="afii10056" unicode="&#x407;" horiz-adv-x="262" 
d="M74 0v700h114v-700h-114zM10 745v115h100v-115h-100zM152 745v115h100v-115h-100z" />
    <glyph glyph-name="afii10057" unicode="&#x408;" horiz-adv-x="269" 
d="M5 0v98h67c22.667 0 36.667 3.66699 42 11c4 6 6 17 6 33v558h114v-567c0 -33.333 -5 -60.333 -15 -81c-16.667 -34.667 -50 -52 -100 -52h-114z" />
    <glyph glyph-name="afii10058" unicode="&#x409;" horiz-adv-x="651" 
d="M414 98l54 0.00195312c20 0 34.333 6 43 18c7.33301 9.33301 11 22.666 11 39.999v93c0 23.333 -2.33301 40.666 -7 51.999c-8.66699 20.667 -24.667 31 -48 31h-53v-234zM300 0.00195312v601.999h-96v-232c0 -65.333 -0.333008 -110.833 -1 -136.5s-4 -56.5 -10 -92.5
s-15.667 -64.667 -29 -86c-22.667 -36.667 -58.667 -55 -108 -55h-51v98c28 -2.66699 49.667 4.66602 65 21.999c7.33301 8.66699 12.333 24.334 15 47.001s4 63.334 4 122.001v411l325 1v-271h52c48 0 86.333 -10.667 115 -32c16.667 -12.667 29.334 -28.167 38.001 -46.5
s13.667 -34 15 -47s2 -29.833 2 -50.5v-101c0 -56 -14 -96 -42 -120c-26.667 -23.333 -60.334 -34.333 -101.001 -33h-193z" />
    <glyph glyph-name="afii10059" unicode="&#x40a;" horiz-adv-x="615" 
d="M145 312v-311.999h-110v700h110v-291h125v291h110v-291h50c46.667 0 84 -8.66699 112 -26c38.667 -24.667 58 -65.334 58 -122.001v-108c0 -54 -14 -94 -42 -120c-23.333 -22 -57 -33 -101 -33h-187v312h-125zM380 312.001l0.000976562 -217.999h56
c17.333 0 30 3.33301 38 10c10.667 8.66699 16 24.667 16 48v77c0 25.333 -2.66699 43.666 -8 54.999c-8.66699 18.667 -23.334 28 -44.001 28h-58z" />
    <glyph glyph-name="afii10060" unicode="&#x40b;" horiz-adv-x="477" 
d="M5 606l-0.000976562 94h374v-94h-148v-189c6.66699 10 16.334 20 29.001 30c13.333 10.667 25.166 18.167 35.499 22.5s24.5 6.5 42.5 6.5c40.667 0 69.667 -13.333 87 -40c14.667 -22 22 -60 22 -114v-322h-114v322c0 20.667 -3.33301 35 -10 43
c-7.33301 10 -20 15 -38 15c-21.333 0 -36.666 -10.667 -45.999 -32c-5.33301 -12.667 -8 -30 -8 -52v-296h-114v606h-112z" />
    <glyph glyph-name="afii10061" unicode="&#x40c;" horiz-adv-x="409" 
d="M144 0l-114.002 -0.000976562v700h114v-271h38c12.667 0 22.834 4.5 30.501 13.5s13.834 27.5 18.501 55.5l20 121c4.66699 30.667 18 52.334 40 65.001c17.333 10.667 41.666 16 72.999 16h32v-100h-18c-16 0 -26.667 -12.333 -32 -37l-21 -124
c-5.33301 -32.667 -17.666 -59.667 -36.999 -81l111 -358h-114l-100 331h-41v-331zM147.998 729.999l-17 48l228 109l35 -98z" />
    <glyph glyph-name="afii10062" unicode="&#x40e;" horiz-adv-x="374" 
d="M13 0l-0.00195312 97.998h59c26.667 0 47 8.33301 61 25c2.66699 3.33301 5 6.66602 7 9.99902s3.66699 6.5 5 9.5s2.5 6.16699 3.5 9.5s1.66699 6.33301 2 9s0.333008 5.83398 0 9.50098s-0.5 6.5 -0.5 8.5s-0.5 4.83301 -1.5 8.5s-1.66699 6.33398 -2 8.00098
s-1.16602 4.33398 -2.49902 8.00098s-2 6.16699 -2 7.5l-137 489h118l75 -344l53 344h118l-116 -569c-9.33301 -48 -32.666 -84.333 -69.999 -109c-24.667 -16 -55.667 -24 -93 -24c-15.333 0 -41 0.666992 -77 2zM228.998 856.998l89.998 0.000976562
c0 -42 -16 -75.667 -48 -101c-24 -19.333 -53.333 -29 -88 -29s-64 9.66699 -88 29c-32 25.333 -48 59 -48 101h90c-1.33301 -16.667 1.33398 -30.334 8.00098 -41.001c9.33301 -14.667 22.333 -22 39 -22s29 7.33301 37 22c6.66699 12 9.33398 25.667 8.00098 41z" />
    <glyph glyph-name="afii10145" unicode="&#x40f;" horiz-adv-x="414" 
d="M256 -130h-98v130h-123v700h114v-602h116v602h114v-700h-123v-130z" />
    <glyph glyph-name="afii10017" unicode="&#x410;" horiz-adv-x="406" 
d="M402 0h-118l-20 129h-122l-20 -129h-118l129 700h140zM155 227h96l-47 279h-2z" />
    <glyph glyph-name="afii10018" unicode="&#x411;" horiz-adv-x="398" 
d="M35 0v700.001h315v-98h-201v-172h66c62.667 0 108 -23.667 136 -71c17.333 -30 26 -68 26 -114v-88c0 -50.667 -13 -90.334 -39 -119.001c-24 -25.333 -55 -38 -93 -38h-210zM149 98.001h45.999c26.667 0 44.334 4.33301 53.001 13c10 11.333 15 32.333 15 63v68
c0 29.333 -4 50 -12 62c-12.667 18.667 -32 28 -58 28h-44v-234z" />
    <glyph glyph-name="afii10019" unicode="&#x412;" horiz-adv-x="394" 
d="M30 0v699.998h211c38 0 69 -12.667 93 -38s36 -63 36 -113v-58c0 -27.333 -5 -49.333 -15 -66c-12 -21.333 -30 -33.666 -54 -36.999v-2c28.667 -8 49 -25.667 61 -53c8 -17.333 12 -42.666 12 -75.999v-116c0 -37.333 -7 -67.333 -21 -90
c-20.667 -34 -54.667 -51 -102 -51h-221zM144 97.998l66.001 0.000976562c21.333 0 35.666 7 42.999 21c4.66699 9.33301 7 30.666 7 63.999v60c0 34.667 -3.66699 57 -11 67c-9.33301 14 -27.333 21 -54 21h-51v-233zM144.001 428.999h56c18.667 0 33 6 43 18
c8.66699 10.667 13 27 13 49v46c0 19.333 -3 33.333 -9 42c-8.66699 12 -23.667 18 -45 18h-58v-173z" />
    <glyph glyph-name="afii10020" unicode="&#x413;" horiz-adv-x="347" 
d="M149 0h-114v700h308v-98h-194v-602z" />
    <glyph glyph-name="afii10021" unicode="&#x414;" horiz-adv-x="499" 
d="M495 -130h-105l3 130h-287l3 -129l-105 -1v228h62c16 53.333 26.333 104.333 31 153s7 113.667 7 195v254h323v-602h68v-228zM186 98h127v504h-95v-179c0 -138 -10.667 -246.333 -32 -325z" />
    <glyph glyph-name="afii10022" unicode="&#x415;" horiz-adv-x="352" 
d="M35 0v700h292v-98h-178v-168h138v-98h-138v-238h193v-98h-307z" />
    <glyph glyph-name="afii10024" unicode="&#x416;" horiz-adv-x="651" 
d="M384 0l-114.004 0.000976562v330l-43 1l-96 -331h-121l121 370c-20 17.333 -32.667 39.666 -38 66.999l-23 123c-2 10 -3.66699 17.167 -5 21.5s-4.16602 8.5 -8.49902 12.5s-10.166 6 -17.499 6h-17v100h48c11.333 0 20.333 -0.5 27 -1.5s15.167 -3.83301 25.5 -8.5
s19 -13 26 -25s12.5 -27.667 16.5 -47l27 -138c7.33301 -35.333 23.333 -53 48 -53l30 1v272h114v-272h30c26 0 42 17.333 48 52l27 138c4 19.333 9.5 35 16.5 47s15.667 20.333 26 25s18.833 7.5 25.5 8.5s15.667 1.5 27 1.5h48v-100h-17c-7.33301 0 -13.166 -2 -17.499 -6
s-7.16602 -8.16699 -8.49902 -12.5s-3 -11.5 -5 -21.5l-23 -123c-4.66699 -26.667 -17 -49 -37 -67l117 -370h-118l-96 331l-43 -1v-330z" />
    <glyph glyph-name="afii10025" unicode="&#x417;" horiz-adv-x="391" 
d="M20 251l113.999 0.00292969v-94c0 -24.667 3 -41.334 9 -50.001c9.33301 -12.667 26.333 -19 51 -19c23.333 0 39.333 6.33301 48 19c6.66699 9.33301 10 25.333 10 48v86c0 29.333 -4.33301 49.333 -13 60c-12 14.667 -38.667 22 -80 22h-58v92h72
c30 0 50 7.33301 60 22c8 11.333 12 29.666 12 54.999v68c0 14.667 -3.66699 26.667 -11 36c-9.33301 10.667 -23.666 16 -42.999 16c-20 0 -34.333 -5 -43 -15c-7.33301 -8.66699 -11 -23 -11 -43v-63h-110v65c0 51.333 14.333 89.666 43 114.999c30 26 70.667 39 122 39
c56 0 98.333 -14 127 -42c26.667 -25.333 40 -59.666 40 -102.999v-68v-5c0 -42 -8.66699 -72 -26 -90c-12 -12.667 -29 -22 -51 -28v-3c21.333 -5.33301 39.333 -16 54 -32c20 -22.667 30 -58.667 30 -108v-73c0 -18.667 -0.5 -33.667 -1.5 -45s-4.83301 -25 -11.5 -41
s-16.667 -30 -30 -42c-28.667 -26.667 -72 -40 -130 -40c-60.667 0 -104.667 13 -132 39c-27.333 27.333 -41 66.666 -41 117.999v104z" />
    <glyph glyph-name="afii10026" unicode="&#x418;" horiz-adv-x="416" 
d="M381 0h-114v348l4 51l-122 -272v-127h-114v700h114v-322l-4 -57l122 272v107h114v-700z" />
    <glyph glyph-name="afii10027" unicode="&#x419;" horiz-adv-x="416" 
d="M381 0h-114v348l4 51l-122 -272v-127h-114v700h114v-322l-4 -57l122 272v107h114v-700zM254 857h90c0 -42 -16 -75.667 -48 -101c-24 -19.333 -53.333 -29 -88 -29s-64 9.66699 -88 29c-32 25.333 -48 59 -48 101h90c0 -18 2.66699 -31.667 8 -41
c8.66699 -14.667 21.667 -22 39 -22c16.667 0 29 7.33301 37 22c5.33301 9.33301 8 23 8 41z" />
    <glyph glyph-name="afii10028" unicode="&#x41a;" horiz-adv-x="409" 
d="M144 0l-114.002 -0.000976562v700h114v-271h38c12.667 0 22.834 4.5 30.501 13.5s13.834 27.5 18.501 55.5l20 121c4.66699 30.667 18 52.334 40 65.001c17.333 10.667 41.666 16 72.999 16h32v-100h-18c-16 0 -26.667 -12.333 -32 -37l-21 -124
c-5.33301 -32.667 -17.666 -59.667 -36.999 -81l111 -358h-114l-100 331h-41v-331z" />
    <glyph glyph-name="afii10029" unicode="&#x41b;" horiz-adv-x="447" 
d="M412 0l-114 0.00195312v602h-95v-232c0 -64.667 -0.333008 -109.834 -1 -135.501s-4 -57 -10 -94s-15.667 -65.5 -29 -85.5c-24 -36.667 -63 -55 -117 -55h-42v98c26 -2 46.333 5.33301 61 22c15.333 17.333 23 73.666 23 168.999v411h324v-700z" />
    <glyph glyph-name="afii10030" unicode="&#x41c;" horiz-adv-x="568" 
d="M338 0h-108l-82 527h-5l6 -93v-434h-114v700h180l67 -452h4l67 452h180v-700h-114v434l6 93h-5z" />
    <glyph glyph-name="afii10031" unicode="&#x41d;" horiz-adv-x="416" 
d="M267 333h-118v-333h-114v700h114v-269h118v269h114v-700h-114v333z" />
    <glyph glyph-name="afii10032" unicode="&#x41e;" horiz-adv-x="412" 
d="M380 546v-392c0 -16.667 -0.666992 -30.5 -2 -41.5s-5.66602 -24.167 -12.999 -39.5s-18 -29.333 -32 -42c-31.333 -27.333 -73.666 -41 -126.999 -41s-95.666 13.667 -126.999 41c-20 18 -32.833 36.5 -38.5 55.5s-8.5 41.5 -8.5 67.5v392
c0 16.667 0.666992 30.5 2 41.5s5.66602 24.167 12.999 39.5s18 29.333 32 42c31.333 27.333 73.666 41 126.999 41s95.666 -13.667 126.999 -41c20 -18 32.833 -36.5 38.5 -55.5s8.5 -41.5 8.5 -67.5zM146 542v-384c0 -22.667 3.66699 -39 11 -49c10 -14 26.333 -21 49 -21
s39 7 49 21c7.33301 10 11 26.333 11 49v384c0 22.667 -3.66699 39 -11 49c-10 14 -26.333 21 -49 21s-39 -7 -49 -21c-7.33301 -10 -11 -26.333 -11 -49z" />
    <glyph glyph-name="afii10033" unicode="&#x41f;" horiz-adv-x="406" 
d="M376 0h-114v602h-118v-602h-114v700h346v-700z" />
    <glyph glyph-name="afii10034" unicode="&#x420;" horiz-adv-x="384" 
d="M149 0l-114 -0.000976562v700h191c46 0 82.333 -14 109 -42c22.667 -23.333 34 -60.333 34 -111v-105c0 -54 -11.333 -92.667 -34 -116c-21.333 -22.667 -55 -35 -101 -37c-26.667 -1.33301 -55 0.333984 -85 5.00098v-294zM149 391.999h61.001c20.667 0 34 7 40 21
c3.33301 6.66699 5 23.667 5 51v75c0 22 -3.33301 37.333 -10 46c-8.66699 11.333 -23.334 17 -44.001 17h-52v-210z" />
    <glyph glyph-name="afii10035" unicode="&#x421;" horiz-adv-x="401" 
d="M376 264l-0.000976562 -117.999c0 -47.333 -14 -84.333 -42 -111c-32 -30 -74.667 -45 -128 -45c-51.333 0 -93.333 15 -126 45c-20 18 -33 37.5 -39 58.5s-9 45.5 -9 73.5v384c0 48 15.667 86.333 47 115c32 29.333 73.667 44 125 44
c48.667 0 88.334 -13.667 119.001 -41c34 -30 51 -72.667 51 -128v-77h-114v86c0 20.667 -4.66699 36 -14 46c-10 10.667 -23.667 16 -41 16s-31.333 -4.66699 -42 -14c-11.333 -10 -17 -27 -17 -51v-393c0 -22.667 4.66699 -39 14 -49c11.333 -11.333 27 -17 47 -17
s34.667 6 44 18c7.33301 9.33301 11 23.666 11 42.999v115h114z" />
    <glyph glyph-name="afii10036" unicode="&#x422;" horiz-adv-x="368" 
d="M242 0h-114v602h-123v98h358v-98h-121v-602z" />
    <glyph glyph-name="afii10037" unicode="&#x423;" horiz-adv-x="374" 
d="M13 0l-0.00195312 97.998h59c26.667 0 47 8.33301 61 25c2.66699 3.33301 5 6.66602 7 9.99902s3.66699 6.5 5 9.5s2.5 6.16699 3.5 9.5s1.66699 6.33301 2 9s0.333008 5.83398 0 9.50098s-0.5 6.5 -0.5 8.5s-0.5 4.83301 -1.5 8.5s-1.66699 6.33398 -2 8.00098
s-1.16602 4.33398 -2.49902 8.00098s-2 6.16699 -2 7.5l-137 489h118l75 -344l53 344h118l-116 -569c-9.33301 -48 -32.666 -84.333 -69.999 -109c-24.667 -16 -55.667 -24 -93 -24c-15.333 0 -41 0.666992 -77 2z" />
    <glyph glyph-name="afii10038" unicode="&#x424;" horiz-adv-x="578" 
d="M346 0h-113.999v107h-53c-52 0 -94.333 18 -127 54c-14 15.333 -24.333 32.833 -31 52.5s-10.167 34 -10.5 43s-0.5 24.5 -0.5 46.5v104c0 69.333 16 119.333 48 150c28 26.667 61.667 40 101 40h73v103h114v-103h73c39.333 0 73 -13.333 101 -40
c32 -30.667 48 -80.667 48 -150v-104c0 -20.667 -0.5 -37.167 -1.5 -49.5s-4.83301 -27.333 -11.5 -45s-16.334 -33.5 -29.001 -47.5c-32 -36 -74.333 -54 -127 -54h-53v-107zM346.001 205l26 -0.00195312c32 0 54.667 11.333 68 34c9.33301 14.667 14 44.334 14 89.001v70
c0 34.667 -6.33301 60.334 -19 77.001c-12.667 16 -30.667 24 -54 24h-35v-294zM232.001 204.998v294.001h-35c-23.333 0 -41.333 -8 -54 -24c-12.667 -16.667 -19 -42.334 -19 -77.001v-74c0 -40.667 4.66699 -69 14 -85c14 -22.667 36.667 -34 68 -34h26z" />
    <glyph glyph-name="afii10039" unicode="&#x425;" horiz-adv-x="404" 
d="M399 0h-120l-63 188l-12 41h-4l-12 -41l-63 -188h-120l136 377l-114 323h120l53 -184h4l53 184h120l-114 -322z" />
    <glyph glyph-name="afii10040" unicode="&#x426;" horiz-adv-x="445" 
d="M379 98h61v-228h-97l3 130h-311v700h114v-602h116v602h114v-602z" />
    <glyph glyph-name="afii10041" unicode="&#x427;" horiz-adv-x="392" 
d="M357 0h-114.001v304h-98c-51.333 0 -86.666 13.333 -105.999 40c-16 22 -24 58.333 -24 109v247h114v-228c0 -24 1.33301 -40 4 -48c5.33301 -14.667 19 -22 41 -22h69v298h114v-700z" />
    <glyph glyph-name="afii10042" unicode="&#x428;" horiz-adv-x="620" 
d="M585 0h-550v700h114v-602h104v602h114v-602h104v602h114v-700z" />
    <glyph glyph-name="afii10043" unicode="&#x429;" horiz-adv-x="654" 
d="M650 -130h-97l3 130l-521 -1v701h114v-603h104v603h114v-603h104v603h114v-602h65v-228z" />
    <glyph glyph-name="afii10044" unicode="&#x42a;" horiz-adv-x="468" 
d="M111 0v602h-106v98h220v-290h58c46 0 83.333 -9.33301 112 -28c38.667 -26 58 -72 58 -138v-91c0 -54.667 -14 -94.667 -42 -120c-24 -22 -57.667 -33 -101 -33h-199zM225 312l0.000976562 -214.001h60c17.333 0 30 3.33301 38 10c10.667 8.66699 16 24.667 16 48v73
c0 24.667 -2.66699 43.334 -8 56.001c-8.66699 18 -23.334 27 -44.001 27h-62z" />
    <glyph glyph-name="afii10045" unicode="&#x42b;" horiz-adv-x="556" 
d="M35 0v699.999h114v-290h52c46 0 83.333 -9.33301 112 -28c38.667 -26 58 -69.333 58 -130v-92c0 -59.333 -14 -101.666 -42 -126.999c-23.333 -22 -57 -33 -101 -33h-193zM149 311.999v-214h54c17.333 0 30 3.33301 38 10c10.667 8.66699 16 24.667 16 48v61
c0 30 -2 49.667 -6 59c-9.33301 24 -30 36 -62 36h-40zM407 -0.000976562v700h114v-700h-114z" />
    <glyph glyph-name="afii10046" unicode="&#x42c;" horiz-adv-x="386" 
d="M35 0l0.00195312 700h114v-270h52c49.333 0 88.333 -10.667 117 -32c16 -12 28.167 -27.5 36.5 -46.5s13.166 -35.167 14.499 -48.5s2 -31 2 -53v-81c0 -20 -0.333008 -35.167 -1 -45.5s-4.33398 -25 -11.001 -44s-16.667 -34.5 -30 -46.5c-23.333 -22 -57 -33 -101 -33
h-193zM149.002 332v-234h54c20 0 34.333 6 43 18c7.33301 10 11 23.667 11 41v92c0 24.667 -2.33301 42 -7 52c-8.66699 20.667 -27 31 -55 31h-46z" />
    <glyph glyph-name="afii10047" unicode="&#x42d;" horiz-adv-x="394" 
d="M362 530v-361.999c0 -25.333 -0.666992 -44.833 -2 -58.5s-6.83301 -30 -16.5 -49s-24.167 -34.5 -43.5 -46.5c-25.333 -16 -60.333 -24 -105 -24c-44 0 -80 9 -108 27c-44.667 28.667 -67 75 -67 139v113h114v-106c0 -24.667 3.33301 -42.334 10 -53.001
c8.66699 -14.667 25.667 -22 51 -22c21.333 0 36 7 44 21c6 8.66699 9 25.667 9 51v167h-173v98h173v127c0 22 -5 37.667 -15 47c-8.66699 8.66699 -21.334 13 -38.001 13c-18.667 0 -32.334 -5 -41.001 -15c-8 -8.66699 -12 -24 -12 -46v-52h-114v44v6
c0 18.667 0.5 33.667 1.5 45s6.33301 26.333 16 45s23.834 33.667 42.501 45c28.667 17.333 64.334 26 107.001 26c52 0 91.333 -11 118 -33c32.667 -26.667 49 -75.667 49 -147z" />
    <glyph glyph-name="afii10048" unicode="&#x42e;" horiz-adv-x="594" 
d="M214 429v117c0 16.667 0.666992 30.5 2 41.5s5.66602 24.167 12.999 39.5s18 29.333 32 42c31.333 27.333 73.666 41 126.999 41s95.666 -13.667 126.999 -41c20 -18 32.833 -36.5 38.5 -55.5s8.5 -41.5 8.5 -67.5v-392c0 -16.667 -0.666992 -30.5 -2 -41.5
s-5.66602 -24.167 -12.999 -39.5s-18 -29.333 -32 -42c-31.333 -27.333 -73.666 -41 -126.999 -41s-95.666 13.667 -126.999 41c-20 18 -32.833 36.5 -38.5 55.5s-8.5 41.5 -8.5 67.5v177h-65v-331h-114v700h114v-271h65zM328 542v-384c0 -22.667 3.66699 -39 11 -49
c10 -14 26.333 -21 49 -21s39 7 49 21c7.33301 10 11 26.333 11 49v384c0 22.667 -3.66699 39 -11 49c-10 14 -26.333 21 -49 21s-39 -7 -49 -21c-7.33301 -10 -11 -26.333 -11 -49z" />
    <glyph glyph-name="afii10049" unicode="&#x42f;" horiz-adv-x="394" 
d="M359 0l-114.001 -0.00195312v314h-28c-29.333 0 -48.333 -5.66699 -57 -17c-6 -8 -9 -23 -9 -45v-155c0 -45.333 -8.33301 -77.666 -25 -96.999h-121v5c21.333 24 32 53.667 32 89v169c0 30.667 5.66699 53.334 17 68.001c12 16.667 29.667 27.667 53 33v3
c-22 2.66699 -40.333 12.334 -55 29.001c-19.333 21.333 -29 51.666 -29 90.999v70c0 50 15.333 87 46 111c26.667 21.333 63.334 32 110.001 32h180v-700zM244.999 411.998l-0.000976562 190h-48c-20 0 -35 -5 -45 -15s-15 -25.667 -15 -47v-49
c0 -21.333 3.66699 -38 11 -50c10.667 -19.333 28.334 -29 53.001 -29h44z" />
    <glyph glyph-name="afii10065" unicode="&#x430;" horiz-adv-x="331" 
d="M306 0l-96.9971 -0.000976562l-1 35c-6.66699 -10.667 -17.334 -20.667 -32.001 -30c-16 -10 -37.333 -15 -64 -15c-31.333 0 -55 10.667 -71 32c-17.333 24 -26 57 -26 99c0 52.667 20.333 97.334 61 134.001c34 31.333 74.667 59 122 83v42
c0 16.667 -2.33301 28.334 -7 35.001c-5.33301 8.66699 -15 13 -29 13c-12.667 0 -22.334 -4.33301 -29.001 -13c-4.66699 -6 -7 -17.667 -7 -35v-35h-104v59c0 31.333 10 57.333 30 78c25.333 26.667 62.666 40 111.999 40c52.667 0 91 -13.667 115 -41
c18 -20.667 27 -51.334 27 -92.001v-389zM198.003 121.999v126c-26.667 -17.333 -46.334 -35.666 -59.001 -54.999c-10.667 -16.667 -16 -38.667 -16 -66c0 -18 2.33301 -31.333 7 -40c6.66699 -11.333 17.667 -17 33 -17c12.667 0 22.334 6 29.001 18
c4 7.33301 6 18.666 6 33.999z" />
    <glyph glyph-name="afii10066" unicode="&#x431;" horiz-adv-x="338" 
d="M313 408v-291.998c0 -36.667 -11.333 -66.334 -34 -89.001c-24.667 -24.667 -61.667 -37 -111 -37c-46 0 -81.667 12.333 -107 37c-24 22.667 -36 52.667 -36 90v374c0 42 6.66699 73 20 93c16.667 24.667 39.667 41.667 69 51l72 23c1.33301 0.666992 4 1.5 8 2.5
s6.66699 1.83301 8 2.5s3.5 1.66699 6.5 3s5.16699 2.83301 6.5 4.5s2.5 3.66699 3.5 6s1.5 5.16602 1.5 8.49902v15h93v-45c0 -42 -26.667 -69 -80 -81l-78 -18c-32.667 -8 -48.667 -29.333 -48 -64c24 20.667 53 31 87 31c36 0 63.333 -7.66699 82 -23
c24.667 -19.333 37 -50 37 -92zM205 132.002v260c0 13.333 -2.66699 23.333 -8 30c-6.66699 7.33301 -15.667 11 -27 11c-12 0 -21.333 -3.33301 -28 -10c-6 -6.66699 -9 -17.667 -9 -33v-258c0 -17.333 2.66699 -29.333 8 -36c6 -8 15.333 -12 28 -12s22 4 28 12
c5.33301 6.66699 8 18.667 8 36z" />
    <glyph glyph-name="afii10067" unicode="&#x432;" horiz-adv-x="338" 
d="M30 0l-0.000976562 512.001h166c45.333 0 78 -13.333 98 -40c12 -16.667 18 -37.667 18 -63v-38c0 -30.667 -6 -53.334 -18 -68.001c-10 -12 -23.667 -20.667 -41 -26v-2c18 -4 32.667 -12.667 44 -26c14 -16 21 -39.667 21 -71v-64c0 -33.333 -10.667 -60.333 -32 -81
c-23.333 -22 -57.666 -33 -102.999 -33h-153zM137.999 84.001h28c16.667 0 28.334 3.66699 35.001 11c6 6.66699 9 17 9 31v53c0 17.333 -2.33301 29.333 -7 36c-6.66699 10 -18.334 15 -35.001 15h-30v-146zM137.999 312.001l30 -0.000976562c13.333 0 23 3.66699 29 11
c6 6.66699 9 16.334 9 29.001v41c0 12 -2.66699 20.667 -8 26c-6 6 -16 9 -30 9h-30v-116z" />
    <glyph glyph-name="afii10068" unicode="&#x433;" horiz-adv-x="263" 
d="M138 0h-108v512h230v-94h-122v-418z" />
    <glyph glyph-name="afii10069" unicode="&#x434;" horiz-adv-x="395" 
d="M344 94h46v-204h-100l3 110h-191l3 -110h-100v204h40c8 22 14.667 49 20 81c7.33301 49.333 11 114.333 11 195v142h268v-418zM236 94v323.999h-56v-108c0 -49.333 -2.66699 -94.666 -8 -135.999c-4 -29.333 -10 -56 -18 -80h82z" />
    <glyph glyph-name="afii10070" unicode="&#x435;" horiz-adv-x="338" 
d="M313 160l-0.000976562 -43.0029c0 -33.333 -9 -61.666 -27 -84.999c-22 -28 -60.667 -42 -116 -42c-49.333 0 -86 12.667 -110 38c-23.333 24.667 -35 62.667 -35 114v241c0 48.667 13.333 84 40 106s61.334 33 104.001 33c43.333 0 78 -11 104 -33
c26.667 -23.333 40 -60.666 40 -111.999v-165h-180v-75c0 -17.333 1.66699 -29.666 5 -36.999c4.66699 -10.667 15 -16 31 -16s26.333 5.66699 31 17c3.33301 7.33301 5 19 5 35v24h108zM204.999 299.997v79c0 18 -3 30.667 -9 38s-15 11 -27 11s-21 -3.66699 -27 -11
s-9 -20 -9 -38v-79h72z" />
    <glyph glyph-name="afii10072" unicode="&#x436;" horiz-adv-x="520" 
d="M515 0h-108l-70 233h-23v-233h-108v233h-23l-70 -233h-108l86 267c-16.667 12 -26.667 31.333 -30 58l-8 66c-1.33301 14 -10 21 -26 21h-15v100h42c22 0 40.333 -5.33301 55 -16c16 -12 25.667 -28.333 29 -49l12 -86c4 -26.667 16.333 -40 37 -40h19v191h108v-191h19
c6 0 11 0.5 15 1.5s8.33301 4.66699 13 11s7.66699 15.5 9 27.5l12 86c3.33301 20.667 13 37 29 49c14.667 10.667 33 16 55 16h42v-100h-15c-16 0 -24.667 -7 -26 -21l-8 -66c-3.33301 -26.667 -13.333 -46 -30 -58z" />
    <glyph glyph-name="afii10073" unicode="&#x437;" horiz-adv-x="325" 
d="M305 182l0.000976562 -78.0029c0 -30 -8.33301 -54.333 -25 -73c-24 -27.333 -62.333 -41 -115 -41c-46 0 -81.667 8.66699 -107 26c-28.667 20 -43 49 -43 87v71h108v-50c0 -17.333 1.66699 -29.333 5 -36c6 -9.33301 17 -14 33 -14c15.333 0 25.666 4.66699 30.999 14
c3.33301 6 5 18.667 5 38v44c0 20.667 -4 35.334 -12 44.001c-10 10 -25.333 15 -46 15h-53v84h61c30.667 0 46 16.667 46 50v34c0 16 -1.66699 25.667 -5 29c-6.66699 8 -16.334 12 -29.001 12c-14 0 -23.667 -3.33301 -29 -10c-4.66699 -5.33301 -7 -15.666 -7 -30.999
v-47h-104v56c0 32 9.33301 58 28 78c23.333 25.333 59.666 38 108.999 38c52.667 0 91.667 -13.333 117 -40c18.667 -20 28 -46.667 28 -80v-35c0 -30.667 -6.33301 -53.667 -19 -69c-11.333 -14 -26.666 -22.333 -45.999 -25c20.667 -8 36.334 -18 47.001 -30
c14.667 -15.333 22 -35.666 22 -60.999z" />
    <glyph glyph-name="afii10074" unicode="&#x438;" horiz-adv-x="348" 
d="M318 0h-108v208l3 57l-75 -187v-78h-108v512h108v-212l-3 -48l75 187v73h108v-512z" />
    <glyph glyph-name="afii10075" unicode="&#x439;" horiz-adv-x="348" 
d="M318 0h-108v208l3 57l-75 -187v-78h-108v512h108v-212l-3 -48l75 187v73h108v-512zM220 700l89.998 0.000976562c0 -42 -16 -75.667 -48 -101c-24 -19.333 -53.333 -29 -88 -29s-64 9.66699 -88 29c-32 25.333 -48 59 -48 101h90
c-1.33301 -16.667 1.33398 -30.334 8.00098 -41.001c9.33301 -14.667 22.333 -22 39 -22s29 7.33301 37 22c6.66699 12 9.33398 25.667 8.00098 41z" />
    <glyph glyph-name="afii10076" unicode="&#x43a;" horiz-adv-x="350" 
d="M342 0h-111.001l-59 221h-34v-221h-108v512h108v-197h27c12.667 0 23 16 31 48l17 81c4.66699 22.667 15.334 40 32.001 52c15.333 10 34 15 56 15h44v-105h-15c-9.33301 0 -15.833 -1.16699 -19.5 -3.5s-6.5 -8.5 -8.5 -18.5l-13 -62
c-5.33301 -24.667 -13 -42.667 -23 -54z" />
    <glyph glyph-name="afii10077" unicode="&#x43b;" horiz-adv-x="367" 
d="M337 0l-108 -0.000976562v418h-56c0 -122.667 -1 -210 -3 -262c-2 -42 -9.66699 -77 -23 -105c-17.333 -34 -47.333 -51 -90 -51h-52v97h21c15.333 0 26 9.33301 32 28c4.66699 14 7.66699 37.333 9 70c2.66699 76.667 3.66699 182.334 3 317.001h267v-512z" />
    <glyph glyph-name="afii10078" unicode="&#x43c;" horiz-adv-x="498" 
d="M468 0h-104v398h-3l-69 -398h-86l-69 398h-3v-398h-104v512h173l46 -312l46 312h173v-512z" />
    <glyph glyph-name="afii10079" unicode="&#x43d;" horiz-adv-x="348" 
d="M318 0h-108v232h-72v-232h-108v512h108v-186h72v186h108v-512z" />
    <glyph glyph-name="afii10080" unicode="&#x43e;" horiz-adv-x="338" 
d="M133 383v-254c0 -12.667 1.66699 -22.334 5 -29.001c6 -10.667 16.333 -16 31 -16s25 5.33301 31 16c3.33301 6.66699 5 16.334 5 29.001v254c0 12.667 -1.66699 22.334 -5 29.001c-6 10.667 -16.333 16 -31 16s-25 -5.33301 -31 -16
c-3.33301 -6.66699 -5 -16.334 -5 -29.001zM313 385v-258c0 -42.667 -10.667 -75 -32 -97c-25.333 -26.667 -62.666 -40 -111.999 -40s-86.666 13.333 -111.999 40c-21.333 22 -32 54.333 -32 97v258c0 42.667 10.667 75 32 97c25.333 26.667 62.666 40 111.999 40
s86.666 -13.333 111.999 -40c21.333 -22 32 -54.333 32 -97z" />
    <glyph glyph-name="afii10081" unicode="&#x43f;" horiz-adv-x="348" 
d="M318 0h-108v418h-72v-418h-108v512h288v-512z" />
    <glyph glyph-name="afii10082" unicode="&#x440;" horiz-adv-x="343" 
d="M138 -150l-107.999 0.000976562v662h102l2 -40c9.33301 12 20.333 22 33 30c22 13.333 43 20 63 20c32.667 0 57 -13.333 73 -40c10 -16.667 15 -46.334 15 -89.001v-309c0 -32.667 -6.66699 -57.667 -20 -75c-15.333 -20 -38 -30 -68 -30
c-20.667 0 -40.334 6 -59.001 18c-14.667 10.667 -24.667 23 -30 37l-3 1v-185zM210.001 132.001v250c0 20 -2.66699 34 -8 42c-6.66699 8 -15.667 12 -27 12c-14 0 -24 -4.66699 -30 -14c-4.66699 -6.66699 -7 -20.667 -7 -42v-241c0 -22.667 3 -40 9 -52
c8.66699 -14.667 19.667 -22 33 -22c12 0 20.333 5.33301 25 16c3.33301 8 5 25 5 51z" />
    <glyph glyph-name="afii10083" unicode="&#x441;" horiz-adv-x="331" 
d="M311 196l0.000976562 -71.002c0 -28 -4 -51.333 -12 -70c-19.333 -43.333 -62.333 -65 -129 -65c-60 0 -102 20.333 -126 61c-12.667 21.333 -19 49 -19 83v250c0 38.667 7.66699 68.334 23 89.001c11.333 15.333 28.166 27.333 50.499 36s46.166 13 71.499 13
c52.667 0 91.334 -16.667 116.001 -50c15.333 -21.333 23 -50 23 -86v-71h-106v66c0 14 -2 24.667 -6 32c-4.66699 10 -13.667 15 -27 15c-12.667 0 -22 -4 -28 -12c-6 -7.33301 -9 -18.666 -9 -33.999v-245c0 -17.333 2.66699 -30.333 8 -39c6 -9.33301 15.667 -14 29 -14
c12.667 0 21.667 4.33301 27 13c4 6 6 19 6 39v60h108z" />
    <glyph glyph-name="afii10084" unicode="&#x442;" horiz-adv-x="316" 
d="M212 0h-108v418h-100v94h308v-94h-100v-418z" />
    <glyph glyph-name="afii10085" unicode="&#x443;" horiz-adv-x="314" 
d="M4 -150l-0.000976562 93.999h65c18.667 0 31.667 5 39 15c8 10.667 9 28.334 3 53.001l-101 500h108l43 -331h4l37 331h108l-95 -579c-5.33301 -32 -20.333 -54.333 -45 -67c-21.333 -10.667 -45.666 -16 -72.999 -16h-93z" />
    <glyph glyph-name="afii10086" unicode="&#x444;" horiz-adv-x="506" 
d="M307 -150l-108.001 -0.000976562v183c-20.667 -28.667 -47.667 -43 -81 -43c-31.333 0 -55.666 11 -72.999 33c-13.333 16 -20 38.333 -20 67v333c0 34.667 9 60.334 27 77.001c16.667 14.667 37.667 22 63 22c40 0 68 -16.667 84 -50v190h108v-190
c16 33.333 44 50 84 50c25.333 0 46.333 -7.33301 63 -22c18 -16.667 27 -42.334 27 -77.001v-333c0 -31.333 -6.66699 -54.666 -20 -69.999c-16.667 -20 -41 -30 -73 -30c-33.333 0 -60.333 14.333 -81 43v-183zM306.999 383.999l-0.000976562 -230.999
c0 -23.333 1 -39.333 3 -48c4 -16.667 14.667 -25 32 -25c14 0 23 5 27 15c2.66699 5.33301 4 18.333 4 39v245c0 21.333 -2 35.666 -6 42.999c-5.33301 8.66699 -13.666 13 -24.999 13s-20 -3.66699 -26 -11c-6 -8 -9 -21.333 -9 -40zM198.998 153l-0.000976562 230.999
c0 18.667 -3 32 -9 40c-6 7.33301 -14.667 11 -26 11s-19.666 -4.33301 -24.999 -13c-4 -7.33301 -6 -21.666 -6 -42.999v-245c0 -20.667 1.33301 -33.667 4 -39c4 -10 13 -15 27 -15c17.333 0 28 8.33301 32 25c2 9.33301 3 25.333 3 48z" />
    <glyph glyph-name="afii10087" unicode="&#x445;" horiz-adv-x="332" 
d="M166 387l42 125h108l-90 -236l102 -276h-108l-54 158l-54 -158h-108l102 276l-90 236h108z" />
    <glyph glyph-name="afii10088" unicode="&#x446;" horiz-adv-x="365" 
d="M314 94h47v-204h-94l4 110h-241v512h108v-418h68v417h108v-417z" />
    <glyph glyph-name="afii10089" unicode="&#x447;" horiz-adv-x="326" 
d="M301 0h-108v206h-98c-28 0 -49.333 9.33301 -64 28c-10.667 14.667 -16 37 -16 67v211h108v-187c0 -16.667 10.333 -25 31 -25h39v212h108v-512z" />
    <glyph glyph-name="afii10090" unicode="&#x448;" horiz-adv-x="510" 
d="M485 0h-460v512h108v-418h68v418h108v-418h68v418h108v-512z" />
    <glyph glyph-name="afii10091" unicode="&#x449;" horiz-adv-x="542" 
d="M490 94h48v-204h-94l4 110h-418v512h108v-418h68v418h108v-418h68v418h108v-418z" />
    <glyph glyph-name="afii10092" unicode="&#x44a;" horiz-adv-x="410" 
d="M107 0v417.999h-103v94h211v-171h55c33.333 0 60 -7.66699 80 -23c30 -22.667 45 -66.334 45 -131.001v-66c0 -19.333 -4.33301 -37.666 -13 -54.999s-19 -30.666 -31 -39.999c-22 -17.333 -47 -26 -75 -26h-169zM215 93.999h32c15.333 0 26.333 5.66699 33 17
c4.66699 8 7 20 7 36v39c0 19.333 -1.66699 33 -5 41c-6.66699 13.333 -17.667 20 -33 20h-34v-153z" />
    <glyph glyph-name="afii10093" unicode="&#x44b;" horiz-adv-x="487" 
d="M457 0h-108v512h108v-512zM30 0v511.998h108v-171h44c40 0 70.333 -8.33301 91 -25c18 -14.667 30 -32 36 -52s9 -46 9 -78v-65c0 -19.333 -4.33301 -37.666 -13 -54.999s-19 -30.666 -31 -39.999c-22 -17.333 -47 -26 -75 -26h-169zM138 93.998h32
c15.333 0 26.333 5.66699 33 17c4.66699 8 7 20 7 36v39c0 19.333 -1.66699 33 -5 41c-6.66699 13.333 -17.667 20 -33 20h-34v-153z" />
    <glyph glyph-name="afii10094" unicode="&#x44c;" horiz-adv-x="333" 
d="M30 0v511.999h108v-171h43c40 0 70.667 -8.33301 92 -25c18 -14.667 30 -31.834 36 -51.501s9 -45.167 9 -76.5v-67c0 -19.333 -4.33301 -37.666 -13 -54.999s-19 -30.666 -31 -39.999c-22 -17.333 -47 -26 -75 -26h-169zM138 93.999h32c14.667 0 25.667 5.66699 33 17
c4.66699 8 7 20 7 36v39c0 19.333 -1.66699 33 -5 41c-6 13.333 -20 20 -42 20h-25v-153z" />
    <glyph glyph-name="afii10095" unicode="&#x44d;" horiz-adv-x="331" 
d="M306 383v-252.003c0 -57.333 -16 -96.666 -48 -117.999c-22.667 -15.333 -55 -23 -97 -23c-42.667 0 -75 8.66699 -97 26c-29.333 21.333 -44 57 -44 107v62h108v-56c0 -16.667 2 -27.667 6 -33c5.33301 -8 15 -12 29 -12c12.667 0 22 3.66699 28 11
c4.66699 7.33301 7 18 7 32v108h-112v88h112v67c0 12 -2.33301 21 -7 27c-6.66699 7.33301 -16 11 -28 11c-13.333 0 -23 -3.66699 -29 -11c-4 -5.33301 -6 -14.666 -6 -27.999v-36h-104v49c0 40.667 16.333 72.334 49 95.001c23.333 16.667 54 25 92 25
c31.333 0 59 -6.33301 83 -19c38.667 -20.667 58 -60.667 58 -120z" />
    <glyph glyph-name="afii10096" unicode="&#x44e;" horiz-adv-x="508" 
d="M199 326v59c0 42.667 10.667 75 32 97c25.333 26.667 62 40 110 40s84.667 -13.333 110 -40c21.333 -22 32 -54.333 32 -97v-258c0 -42.667 -10.667 -75 -32 -97c-25.333 -26.667 -62 -40 -110 -40s-84.667 13.333 -110 40c-21.333 22 -32 54.333 -32 97v104h-61v-231
h-108v500h108v-174h61zM307 383v-254c0 -12 1.66699 -21.667 5 -29c6 -10.667 15.667 -16 29 -16s23 5.33301 29 16c3.33301 7.33301 5 17 5 29v254c0 12 -1.66699 21.667 -5 29c-6 10.667 -15.667 16 -29 16s-23 -5.33301 -29 -16c-3.33301 -7.33301 -5 -17 -5 -29z" />
    <glyph glyph-name="afii10097" unicode="&#x44f;" horiz-adv-x="341" 
d="M311 0l-108 0.00195312v203h-17c-7.33301 0 -13.666 -0.5 -18.999 -1.5s-11.333 -5.33301 -18 -13s-10 -18.834 -10 -33.501v-99c0 -25.333 -6.66699 -44 -20 -56h-111v2c5.33301 6.66699 10.666 15.667 15.999 27c4.66699 10.667 7 27.667 7 51v85
c0 27.333 6 47.666 18 60.999c9.33301 10.667 21.333 19 36 25v2c-17.333 6 -31 14.667 -41 26c-15.333 16.667 -23 39.667 -23 69v63c0 32 13 57.333 39 76c22.667 16.667 52.667 25 90 25h161v-512zM203 291.002v133h-30c-14.667 0 -25.334 -2.33301 -32.001 -7
c-8 -6 -12 -17 -12 -33v-33c0 -15.333 1.66699 -27 5 -35c6.66699 -16.667 17.334 -25 32.001 -25h37z" />
    <glyph glyph-name="afii10071" unicode="&#x451;" horiz-adv-x="338" 
d="M293 581h-100v119h100v-119zM137 580h-100v120h100v-120zM313 160l0.000976562 -43c0 -34.667 -9 -63 -27 -85c-22 -28 -60.667 -42 -116 -42c-49.333 0 -86 12.667 -110 38c-23.333 24 -35 62 -35 114v241c0 46.667 13 81.667 39 105c25.333 22.667 60.333 34 105 34
c43.333 0 78 -11 104 -33c26.667 -24 40 -61.333 40 -112v-165h-180v-75c0 -14.667 2 -26 6 -34c6 -12.667 16.333 -19 31 -19c15.333 0 25.666 6.66699 30.999 20c2.66699 7.33301 4 18 4 32v24h108zM205.001 300v84c0 15.333 -3 26.333 -9 33
c-6.66699 7.33301 -15.667 11 -27 11c-12 0 -21 -3.66699 -27 -11s-9 -20 -9 -38v-79h72z" />
    <glyph glyph-name="afii10099" unicode="&#x452;" horiz-adv-x="348" 
d="M254 -134h-100.001c14 15.333 25 29 33 41c15.333 22 23 47 23 75v398c0 19.333 -2 31.666 -6 36.999c-4.66699 8 -13 12 -25 12c-16 0 -27.667 -10.333 -35 -31c-4 -11.333 -6 -28.666 -6 -51.999v-346h-108v565h-68v83h68v52h108v-52h114v-83h-114v-104
c6 12 13.667 22.667 23 32c18 19.333 42.333 29 73 29s53.334 -12 68.001 -36c10.667 -19.333 16 -44 16 -74v-405c0 -23.333 -5 -48.333 -15 -75c-10.667 -26 -27 -48 -49 -66z" />
    <glyph glyph-name="afii10100" unicode="&#x453;" horiz-adv-x="263" 
d="M138 0h-108v512h230v-94h-122v-418zM112 551l181 107l-67 80l-145 -145z" />
    <glyph glyph-name="afii10101" unicode="&#x454;" horiz-adv-x="336" 
d="M311 185v-61.998c0 -50 -14.667 -85.667 -44 -107c-22 -17.333 -54.333 -26 -97 -26c-42 0 -74.333 7.66699 -97 23c-32 21.333 -48 60.666 -48 117.999v252c0 59.333 19.333 99.333 58 120c24 12.667 51.667 19 83 19c38 0 68.667 -8.33301 92 -25
c32.667 -22.667 49 -54.334 49 -95.001v-49h-104v36c0 12 -2.66699 21.333 -8 28c-6 7.33301 -15.333 11 -28 11c-14 0 -23.333 -3.66699 -28 -11c-4 -5.33301 -6 -14.333 -6 -27v-74h112v-88h-112v-101c0 -14 2.33301 -24.667 7 -32c6 -7.33301 15.333 -11 28 -11
c14 0 23.667 4 29 12c4 5.33301 6 16.333 6 33v56h108z" />
    <glyph glyph-name="afii10102" unicode="&#x455;" horiz-adv-x="316" 
d="M15 171h107.999v-53c0 -13.333 2.66699 -23.333 8 -30s15.333 -10 30 -10c13.333 0 22.333 3.66699 27 11c3.33301 4.66699 5 13.334 5 26.001c0 18 -1.16699 31.5 -3.5 40.5s-8.16602 17.833 -17.499 26.5l-104 103c-14 14 -25.333 30.333 -34 49
c-9.33301 19.333 -14 40 -14 62c0 22.667 4 42.334 12 59.001c8 16 19 29.333 33 40c26 18 58.667 27 98 27s70.666 -9.33301 93.999 -28c26 -20.667 39 -54.334 39 -101.001v-37h-104v41c0 13.333 -2.66699 22.666 -8 27.999c-6 6 -14 9 -24 9
c-8 0 -15.333 -2.66699 -22 -8c-6.66699 -6 -10 -15.667 -10 -29c0 -16 6.33301 -30.333 19 -43l110 -111c29.333 -29.333 44 -68 44 -116c0 -36 -8.33301 -64.667 -25 -86c-14.667 -18.667 -31 -31.667 -49 -39c-18 -8 -42 -12 -72 -12c-21.333 0 -41.666 3 -60.999 9
s-36 17.333 -50 34c-19.333 22 -29 51.333 -29 88v50z" />
    <glyph glyph-name="afii10103" unicode="&#x456;" horiz-adv-x="168" 
d="M138 0h-108v512h108v-512zM138 572h-108v128h108v-128z" />
    <glyph glyph-name="afii10104" unicode="&#x457;" horiz-adv-x="264" 
d="M187 0h-108v512h108v-512zM254 581h-100v119h100v-119zM110 580h-100v120h100v-120z" />
    <glyph glyph-name="afii10105" unicode="&#x458;" horiz-adv-x="168" 
d="M-57 -150v94h57c12.667 0 20.834 3 24.501 9s5.5 14.667 5.5 26v533h108v-552c0 -36.667 -5.66699 -63 -17 -79c-14.667 -20.667 -38.334 -31 -71.001 -31h-107zM138 572h-108v128h108v-128z" />
    <glyph glyph-name="afii10106" unicode="&#x459;" horiz-adv-x="532" 
d="M337 512v-171h58c16 0 30 -1.5 42 -4.5s24.667 -8.83301 38 -17.5s23.666 -23 30.999 -43s11 -45 11 -75v-81c0 -37.333 -11.167 -66.666 -33.5 -87.999s-50.833 -32 -85.5 -32h-169v418h-56c0 -146.667 -1 -234 -3 -262c-3.33301 -49.333 -11 -85 -23 -107
c-18 -32.667 -48 -49 -90 -49h-52v97h21c14.667 0 25.334 9.33301 32.001 28c5.33301 13.333 8.33301 36.666 9 69.999c2 84 3 189.667 3 317h267zM337 94h32c12.667 0 22.5 4.83301 29.5 14.5s10.5 22.5 10.5 38.5v42c0 19.333 -2.66699 33.833 -8 43.5
s-15.333 14.5 -30 14.5h-34v-153z" />
    <glyph glyph-name="afii10107" unicode="&#x45a;" horiz-adv-x="528" 
d="M210 325v186.998h108v-171h62c28 0 52.333 -8.33301 73 -25c30 -24 45 -63.333 45 -118v-77c0 -19.333 -4.33301 -37.666 -13 -54.999s-19 -30.666 -31 -39.999c-22 -17.333 -47 -26 -75 -26h-169v231h-72v-231h-108v512h108v-187h72zM318 93.998h32
c14.667 0 25.667 5.66699 33 17c4.66699 8.66699 7 20.667 7 36v39c0 19.333 -1.66699 33 -5 41c-6.66699 13.333 -17.667 20 -33 20h-34v-153z" />
    <glyph glyph-name="afii10108" unicode="&#x45b;" horiz-adv-x="348" 
d="M318 0h-108.001v380c0 19.333 -2 31.666 -6 36.999c-4.66699 8 -13 12 -25 12c-16 0 -27.667 -10.333 -35 -31c-4 -11.333 -6 -28.666 -6 -51.999v-346h-108v565h-68v83h68v52h108v-52h114v-83h-114v-104c6 12 13.667 22.667 23 32c18 19.333 42.333 29 73 29
s53.334 -12 68.001 -36c10.667 -19.333 16 -44 16 -74v-412z" />
    <glyph glyph-name="afii10109" unicode="&#x45c;" horiz-adv-x="350" 
d="M342 0h-111.001l-59 221h-34v-221h-108v512h108v-197h27c12.667 0 23 16 31 48l17 81c4.66699 22.667 15.334 40 32.001 52c15.333 10 34 15 56 15h44v-105h-15c-9.33301 0 -15.833 -1.16699 -19.5 -3.5s-6.5 -8.5 -8.5 -18.5l-13 -62
c-5.33301 -24.667 -13 -42.667 -23 -54zM161.999 551l181 107l-67 80l-145 -145z" />
    <glyph glyph-name="afii10110" unicode="&#x45e;" horiz-adv-x="314" 
d="M199 700l89.998 0.000976562c0 -42 -16 -75.667 -48 -101c-24 -19.333 -53.333 -29 -88 -29s-64 9.66699 -88 29c-32 25.333 -48 59 -48 101h90c-1.33301 -16.667 1.33398 -30.334 8.00098 -41.001c9.33301 -14.667 22.333 -22 39 -22s29 7.33301 37 22
c6.66699 12 9.33398 25.667 8.00098 41zM3.99805 -149.999l-0.000976562 93.999h65c18.667 0 31.667 5 39 15c8 10.667 9 28.334 3 53.001l-101 500h108l43 -331h4l37 331h108l-95 -579c-5.33301 -32 -20.333 -54.333 -45 -67c-21.333 -10.667 -45.666 -16 -72.999 -16h-93z
" />
    <glyph glyph-name="afii10193" unicode="&#x45f;" horiz-adv-x="344" 
d="M30 0v510h108v-416h68v417h108v-511h-98v-110h-87v110h-99z" />
    <glyph glyph-name="afii10050" unicode="&#x490;" horiz-adv-x="347" 
d="M149 0h-114v700h217l1 110l90 1v-209h-194v-602z" />
    <glyph glyph-name="afii10098" unicode="&#x491;" horiz-adv-x="280" 
d="M138 0h-108v512h155v98h92v-192h-139v-418z" />
    <glyph glyph-name="endash" unicode="&#x2013;" horiz-adv-x="448" 
d="M10 215v83h428v-83h-428z" />
    <glyph glyph-name="emdash" unicode="&#x2014;" horiz-adv-x="668" 
d="M10 215v83h648v-83h-648z" />
    <glyph glyph-name="quoteleft" unicode="&#x2018;" horiz-adv-x="171" 
d="M91 700h50l-47 -132h44v-120h-108v129z" />
    <glyph glyph-name="quoteright" unicode="&#x2019;" horiz-adv-x="171" 
d="M80 448h-50l47 132h-44v120h108v-129z" />
    <glyph glyph-name="quotedblleft" unicode="&#x201c;" horiz-adv-x="312" 
d="M232 700h50l-47 -132h44v-120h-108v129zM91 700h50l-47 -132h44v-120h-108v129z" />
    <glyph glyph-name="quotedblright" unicode="&#x201d;" horiz-adv-x="312" 
d="M80 448h-50l47 132h-44v120h108v-129zM221 448h-50l47 132h-44v120h108v-129z" />
    <glyph glyph-name="quotedblbase" unicode="&#x201e;" horiz-adv-x="312" 
d="M80 -132h-50l47 132h-44v120h108v-129zM221 -132h-50l47 132h-44v120h108v-129z" />
    <glyph glyph-name="dagger" unicode="&#x2020;" horiz-adv-x="390" 
d="M245 -165h-100v586h-130v88h130v191h100v-191h130v-88h-130v-586z" />
    <glyph glyph-name="bullet" unicode="&#x2022;" horiz-adv-x="272" 
d="M30 397c0 29.333 10.333 54.333 31 75s45.667 31 75 31s54.333 -10.333 75 -31s31 -45.667 31 -75s-10.333 -54.333 -31 -75s-45.667 -31 -75 -31s-54.333 10.333 -75 31s-31 45.667 -31 75z" />
    <glyph glyph-name="ellipsis" unicode="&#x2026;" horiz-adv-x="504" 
d="M30 0v120h108v-120h-108zM198 0v120h108v-120h-108zM366 0v120h108v-120h-108z" />
    <glyph glyph-name="Euro" unicode="&#x20ac;" horiz-adv-x="382" 
d="M351 686v-102.001c-17.333 17.333 -43.666 26 -78.999 26c-54.667 0 -85 -47 -91 -141h147l-21 -85h-133v-30v-33h116l-22 -85h-87c5.33301 -97.333 36 -146 92 -146c34.667 0 60.667 8.66699 78 26v-104c-16.667 -14 -49.334 -21 -98.001 -21
c-102.667 0 -161.334 81.667 -176.001 245h-61l22 85h31c-1.33301 10.667 -2 21.334 -2 32.001c0 3.33301 0.166992 8.33301 0.5 15s0.5 12 0.5 16h-52l22 85h37c14.667 160.667 74 241 178 241c46.667 0 79.334 -8 98.001 -24z" />
    <glyph glyph-name="afii61352" unicode="&#x2116;" horiz-adv-x="707" 
d="M386 0l-108.999 0.000976562l-124 480l3 -69v-283c0 -38.667 -5 -66.667 -15 -84c-16.667 -29.333 -49.334 -44 -98.001 -44h-38v105h17c12 0 22 3 30 9c8 6.66699 12 19 12 37v549h109l127 -453l-6 76v259c0 41.333 7.33301 70.666 22 87.999c16.667 20 47 30 91 30h40
v-105h-29c-21.333 0 -32 -11 -32 -33v-562zM450.001 0.000976562v88h218v-88h-218zM682.001 354.001v-66c0 -46 -8.33301 -79 -25 -99c-21.333 -26 -53.666 -39 -96.999 -39c-42 0 -74.333 13 -97 39c-16.667 20 -25 53 -25 99v66c0 46 8.33301 79 25 99
c22.667 26 55 39 97 39c43.333 0 75.666 -13 96.999 -39c16.667 -20 25 -53 25 -99zM532.001 379.001v-116c0 -12.667 1.66699 -22 5 -28c4.66699 -8 12.334 -12 23.001 -12s18.334 4 23.001 12c3.33301 6 5 15.333 5 28v116c0 13.333 -1.66699 22.666 -5 27.999
c-4.66699 8 -12.334 12 -23.001 12s-18.334 -4 -23.001 -12c-3.33301 -5.33301 -5 -14.666 -5 -27.999z" />
    <glyph glyph-name="trademark" unicode="&#x2122;" horiz-adv-x="416" 
d="M106 450h-52v204h-50v46h151v-46h-49v-204zM386 450h-51v194h-2l-34 -194h-41l-34 194h-2v-194h-51v250h85l23 -152l22 152h85v-250z" />
    <glyph glyph-name="radical" unicode="&#x221a;" horiz-adv-x="573" 
d="M380 699h188v-59h-140l-159 -641l-61 1l-90 350l-113 1v66h162l69 -292z" />
    <glyph glyph-name="infinity" unicode="&#x221e;" horiz-adv-x="720" 
d="M178 467h72c50 0 86.667 -19.333 110 -58c23.333 38.667 60 58 110 58h72c46 0 79 -8.33301 99 -25c26 -22.667 39 -55 39 -97s-13 -74.333 -39 -97c-20 -16.667 -53 -25 -99 -25h-72c-48 0 -84.667 18.667 -110 56c-24 -37.333 -60.667 -56 -110 -56h-72
c-46 0 -79 8.33301 -99 25c-26 22.667 -39 55 -39 97s13 74.333 39 97c20 16.667 53 25 99 25zM258 395l-90 -0.000976562c-16 0 -27.333 -2.33301 -34 -7c-11.333 -7.33301 -17 -21.666 -17 -42.999c0 -20.667 5.66699 -35 17 -43c6.66699 -4.66699 18 -7 34 -7h90
c18.667 0 33 5 43 15s15 21.667 15 35c0 14 -5 25.667 -15 35c-10.667 10 -25 15 -43 15zM552 394.999l-89 0.000976562c-19.333 0 -35 -6 -47 -18c-8.66699 -8.66699 -13 -19.334 -13 -32.001c0 -13.333 5 -25 15 -35s24.667 -15 44 -15h90c14.667 0 25.667 2.33301 33 7
c12 8 18 22.333 18 43s-6 35 -18 43c-7.33301 4.66699 -18.333 7 -33 7z" />
    <glyph glyph-name="approxequal" unicode="&#x2248;" 
d="M40 350l-0.000976562 73.999c19.333 16 42 29.667 68 41c22 10 43 15 63 15c22.667 0 46.334 -5 71.001 -15l72 -28c24 -10 44.333 -15 61 -15c18 0 41.667 6.66699 71 20c18 8 36 17 54 27v-74c-23.333 -12 -42.666 -21 -57.999 -27
c-24.667 -10.667 -48.334 -16 -71.001 -16c-22 0 -50.667 6.66699 -86 20l-75 29c-16.667 6 -32.667 9 -48 9c-16 0 -34.667 -4.66699 -56 -14c-23.333 -11.333 -45.333 -26.666 -66 -45.999zM39.999 191.999l-0.000976562 73.999c19.333 16 42 29.667 68 41
c22 10 43 15 63 15c22.667 0 46.334 -5 71.001 -15l72 -28c24 -10 44.333 -15 61 -15c18 0 41.667 6.66699 71 20c18 8 36 17 54 27v-74c-23.333 -12 -42.666 -21 -57.999 -27c-24.667 -10.667 -48.334 -16 -71.001 -16c-22 0 -50.667 6.66699 -86 20l-75 29
c-16.667 6 -32.667 9 -48 9c-16 0 -34.667 -4.66699 -56 -14c-23.333 -11.333 -45.333 -26.666 -66 -45.999z" />
    <glyph glyph-name="notequal" unicode="&#x2260;" 
d="M194 101h-58l54 133h-150v76h180l29 71h-209v76h240l54 135h58l-54 -135h162v-76h-193l-29 -71h222v-76h-252z" />
    <glyph glyph-name="lessequal" unicode="&#x2264;" 
d="M500 116v-84l-460 179v84zM500 274v-84l-460 179v76l460 179v-84l-353 -133z" />
    <glyph glyph-name="greaterequal" unicode="&#x2265;" 
d="M40 190v84l353 133l-353 133v84l460 -179v-76zM40 32v84l460 179v-84z" />
    <glyph glyph-name="Acute" unicode="&#xf6c9;" horiz-adv-x="325" 
d="M48 730l-17 48l228 109l35 -98z" />
    <glyph glyph-name="Dieresis" unicode="&#xf6cb;" horiz-adv-x="325" 
d="M33 745v115h100v-115h-100zM192 745v115h100v-115h-100z" />
    <glyph glyph-name="cyrBreve" unicode="&#xf6d1;" horiz-adv-x="325" 
d="M208 857l89.998 0.000976562c0 -42 -16 -75.667 -48 -101c-24 -19.333 -53.333 -29 -88 -29s-64 9.66699 -88 29c-32 25.333 -48 59 -48 101h90c-1.33301 -16.667 1.33398 -30.334 8.00098 -41.001c9.33301 -14.667 22.333 -22 39 -22s29 7.33301 37 22
c6.66699 12 9.33398 25.667 8.00098 41z" />
    <glyph glyph-name="cyrbreve" unicode="&#xf6d4;" horiz-adv-x="325" 
d="M208 700l89.998 0.000976562c0 -42 -16 -75.667 -48 -101c-24 -19.333 -53.333 -29 -88 -29s-64 9.66699 -88 29c-32 25.333 -48 59 -48 101h90c-1.33301 -16.667 1.33398 -30.334 8.00098 -41.001c9.33301 -14.667 22.333 -22 39 -22s29 7.33301 37 22
c6.66699 12 9.33398 25.667 8.00098 41z" />
    <glyph glyph-name=".null" horiz-adv-x="0" 
 />
    <glyph glyph-name="nonmarkingreturn" horiz-adv-x="333" 
 />
    <glyph glyph-name="nbspace" horiz-adv-x="233" 
 />
    </font>
</defs>
</svg>
